<svg xmlns="http://www.w3.org/2000/svg" viewBox="0 0 691.21 684.84"><defs><style>.cls-1{fill:#fff;}</style></defs><title>logo-B</title><g id="Calque_2" data-name="Calque 2"><g id="DI"><path class="cls-1" d="M690.42,316.83v2.73q0,154.16-85.08,238.86Q511.27,652.1,379,652.1q-132.7,0-226.37-93.67Q67.5,473.73,67.51,319.56v-2.73h-.78V281.7H691.21v35.13Zm-35.91,0H103v2.73Q103,458.51,178,533.06q83.13,83.13,201,83.13,117.47,0,201-83.13,74.54-74.55,74.55-213.49Z"/><path class="cls-1" d="M68.81,649.72h622v35.13h-622Z"/></g><g id="V"><polygon class="cls-1" points="355.67 269.04 387.11 0 355.86 7.48 325.33 269.04 355.67 269.04"/><polygon class="cls-1" points="315.95 330.04 296.79 479.04 188.81 330.04 149.27 330.04 319.15 564.65 349.37 330.04 315.95 330.04"/></g><g id="B"><path class="cls-1" d="M152.77,269l-18.09-27.82,52.24-34.44q52.51-34.6,114.15-21.95,34.2,7,60.07,26.35l4.17-35.68a185.47,185.47,0,0,0-57.76-22.18q-47.72-12.22-83.24,2,15.78-53.26-7-87.91Q194.6,33,154.15,24.83T79.33,39.28L0,91.58,116.85,269ZM95.9,64.42Q121,47.85,148.85,53t44.38,30.25q16.57,25.14,9.84,52-5.79,23.45-25.45,39.21L117,214.38,41.71,100.13Z"/></g></g></svg>