<svg xmlns="http://www.w3.org/2000/svg" xmlns:xlink="http://www.w3.org/1999/xlink" viewBox="0 0 691.21 684.84"><defs><style>.cls-1{fill:url(#Dégradé_sans_nom_19);}.cls-2{fill:url(#Dégradé_sans_nom_19-2);}.cls-3{fill:url(#Dégradé_sans_nom_19-3);}.cls-4{fill:url(#Dégradé_sans_nom_19-4);}.cls-5{fill:url(#Dégradé_sans_nom_19-5);}</style><linearGradient id="Dégradé_sans_nom_19" x1="633.58" y1="216.63" x2="43.58" y2="626.63" gradientUnits="userSpaceOnUse"><stop offset="0" stop-color="#e74c3c"/><stop offset="1" stop-color="#e8b742"/></linearGradient><linearGradient id="Dégradé_sans_nom_19-2" x1="762.12" y1="401.6" x2="172.12" y2="811.6" xlink:href="#Dégradé_sans_nom_19"/><linearGradient id="Dégradé_sans_nom_19-3" x1="506.38" y1="33.6" x2="-83.62" y2="443.6" xlink:href="#Dégradé_sans_nom_19"/><linearGradient id="Dégradé_sans_nom_19-4" x1="611.64" y1="185.06" x2="21.64" y2="595.06" xlink:href="#Dégradé_sans_nom_19"/><linearGradient id="Dégradé_sans_nom_19-5" x1="455.48" y1="-39.66" x2="-134.52" y2="370.34" xlink:href="#Dégradé_sans_nom_19"/></defs><title>logo-full-RO</title><g id="Calque_2" data-name="Calque 2"><g id="B"><path class="cls-1" d="M690.42,316.83v2.73q0,154.16-85.08,238.86Q511.27,652.1,379,652.1q-132.7,0-226.37-93.67Q67.5,473.73,67.51,319.56v-2.73h-.78V281.7H691.21v35.13Zm-35.91,0H103v2.73Q103,458.51,178,533.06q83.13,83.13,201,83.13,117.47,0,201-83.13,74.54-74.55,74.55-213.49Z"/><path class="cls-2" d="M68.81,649.72h622v35.13h-622Z"/><polygon class="cls-3" points="355.67 269.04 387.11 0 355.86 7.48 325.33 269.04 355.67 269.04"/><polygon class="cls-4" points="315.95 330.04 296.79 479.04 188.81 330.04 149.27 330.04 319.15 564.65 349.37 330.04 315.95 330.04"/><path class="cls-5" d="M152.77,269l-18.09-27.82,52.24-34.44q52.51-34.6,114.15-21.95,34.2,7,60.07,26.35l4.17-35.68a185.47,185.47,0,0,0-57.76-22.18q-47.72-12.22-83.24,2,15.78-53.26-7-87.91Q194.6,33,154.15,24.83T79.33,39.28L0,91.58,116.85,269ZM95.9,64.42Q121,47.85,148.85,53t44.38,30.25q16.57,25.14,9.84,52-5.79,23.45-25.45,39.21L117,214.38,41.71,100.13Z"/></g></g></svg>