<?xml version="1.0" standalone="no"?>
<!DOCTYPE svg PUBLIC "-//W3C//DTD SVG 20010904//EN"
 "http://www.w3.org/TR/2001/REC-SVG-20010904/DTD/svg10.dtd">
<svg version="1.0" xmlns="http://www.w3.org/2000/svg"
 width="1875.000000pt" height="1875.000000pt" viewBox="0 0 1875.000000 1875.000000"
 preserveAspectRatio="xMidYMid meet">
<metadata>
Created by potrace 1.11, written by Peter Selinger 2001-2013
</metadata>
<g transform="translate(0.000000,1875.000000) scale(0.100000,-0.100000)"
fill="#000000" stroke="none">
<path d="M8370 15946 c-168 -53 -228 -80 -336 -151 -114 -74 -229 -191 -307
-312 -100 -153 -203 -243 -482 -416 -54 -34 -111 -112 -195 -267 -90 -166
-115 -196 -294 -352 -230 -201 -611 -587 -740 -748 -233 -292 -400 -577 -488
-832 l-32 -93 -7 -535 c-9 -691 -22 -980 -56 -1175 -31 -185 -43 -537 -23
-718 14 -130 51 -331 80 -432 18 -64 20 -99 20 -436 0 -630 40 -1114 140
-1703 168 -989 466 -1893 925 -2806 312 -618 530 -935 895 -1300 253 -254 641
-557 702 -548 21 3 23 8 26 71 l3 68 80 -73 c292 -265 634 -409 1026 -433 339
-21 721 87 1007 285 39 27 113 85 164 130 l92 81 0 -46 c0 -56 14 -85 41 -85
56 0 415 279 648 505 293 284 492 541 700 905 604 1055 1016 2248 1195 3455
77 520 106 928 106 1485 0 495 -20 825 -76 1270 -41 319 -26 575 52 895 25
105 26 119 21 285 -11 323 -60 579 -163 859 -81 220 -257 530 -402 709 l-50
62 -42 -77 c-162 -302 -469 -577 -788 -708 l-53 -21 60 -46 c235 -183 457
-433 616 -692 209 -341 341 -738 375 -1132 15 -165 9 -303 -20 -474 -21 -124
-23 -162 -22 -485 2 -448 7 -493 96 -815 40 -148 56 -274 67 -558 21 -505 -15
-802 -142 -1184 -89 -269 -190 -465 -351 -684 -58 -79 -153 -182 -343 -369
-315 -312 -409 -427 -554 -680 -40 -70 -52 -84 -57 -69 -19 51 -66 148 -103
212 -47 81 -50 83 -289 152 -263 76 -494 119 -799 150 -107 11 -198 22 -202
24 -4 3 -66 10 -138 16 -149 13 -317 2 -472 -30 l-95 -20 -93 20 c-148 32
-316 43 -466 30 -72 -6 -133 -13 -137 -15 -4 -2 -97 -13 -206 -24 -217 -22
-374 -47 -554 -87 -125 -28 -402 -106 -456 -129 -40 -16 -76 -70 -142 -206
l-46 -97 -69 117 c-124 207 -326 458 -464 576 -187 160 -394 384 -501 542
-234 345 -384 782 -422 1228 -22 260 -9 717 26 905 45 249 45 249 44 555 0
255 3 324 21 455 17 126 23 233 29 570 6 330 12 436 26 515 14 77 17 140 15
271 -8 469 85 888 285 1281 73 143 162 284 195 307 13 9 62 44 109 78 185 132
384 367 491 579 55 110 54 159 -7 344 -63 194 -153 499 -148 504 2 3 8 0 13
-5 11 -11 106 -251 161 -408 90 -256 193 -451 280 -529 41 -37 70 -52 143 -76
233 -74 453 -105 752 -105 248 0 336 8 559 55 164 34 262 37 391 10 163 -34
289 -92 400 -185 215 -181 475 -263 743 -236 136 14 228 42 367 110 145 71
186 83 290 83 120 1 195 -27 527 -200 37 -20 62 -25 118 -25 65 0 81 5 168 47
245 118 466 307 623 532 63 91 83 138 103 235 32 157 16 341 -45 498 -32 85
-116 218 -156 250 -53 41 -111 39 -132 -7 -12 -27 -13 -26 -55 63 -114 238
-270 429 -507 621 -53 43 -92 85 -127 138 -28 43 -60 83 -70 91 -11 7 -58 22
-105 32 -47 11 -102 29 -121 41 -56 35 -114 108 -133 168 l-17 54 -61 -8 c-76
-10 -174 -7 -239 7 -28 7 -103 37 -166 68 -129 64 -81 58 -425 52 -241 -4
-407 28 -640 122 l-100 40 -116 -5 c-79 -3 -123 -1 -136 6 -11 7 -41 27 -68
45 -27 17 -60 32 -73 32 -14 0 -79 -32 -144 -71 -66 -40 -169 -92 -229 -116
-112 -46 -319 -103 -370 -103 -27 0 -29 2 -19 21 6 11 58 69 116 128 90 94
124 143 97 140 -5 0 -69 -20 -143 -43z m1265 -10228 c336 -109 676 -173 1050
-198 359 -24 431 -45 502 -150 44 -66 133 -240 133 -261 0 -9 -24 -67 -54
-130 -65 -139 -152 -364 -200 -521 l-37 -117 -102 -39 c-307 -120 -686 -212
-1031 -253 -107 -12 -109 -12 -127 9 -40 50 -102 396 -115 636 -4 75 -11 139
-15 142 -14 9 -491 6 -499 -3 -5 -4 -13 -83 -19 -175 -17 -248 -77 -569 -115
-606 -14 -14 -29 -14 -153 2 -193 24 -450 77 -635 130 -154 44 -424 140 -442
156 -4 5 -36 93 -71 197 -65 196 -139 382 -206 515 l-40 79 61 118 c73 140
105 182 162 210 56 27 192 47 408 61 390 25 752 96 1114 220 82 28 156 55 164
59 10 6 39 0 81 -17 36 -13 120 -42 186 -64z"/>
<path d="M7165 9924 c-502 -18 -1019 -91 -1080 -152 -22 -22 -25 -33 -25 -99
0 -41 5 -84 11 -96 7 -12 44 -56 84 -98 85 -87 82 -78 89 -294 8 -228 61 -441
166 -662 166 -351 449 -611 740 -682 276 -67 768 -67 1033 0 96 24 239 89 327
149 287 195 537 570 615 924 14 61 16 101 11 176 -6 88 -5 99 14 123 64 80
435 71 476 -12 8 -16 10 -55 7 -117 -7 -106 4 -175 49 -309 130 -390 429 -741
753 -883 154 -67 376 -102 656 -102 379 0 631 54 800 172 111 77 286 256 359
368 177 271 279 610 280 930 0 134 5 146 100 239 70 69 80 91 80 175 0 103
-24 121 -215 160 -219 45 -629 82 -1020 92 -314 7 -436 -1 -768 -51 -307 -46
-495 -95 -732 -191 -336 -136 -289 -125 -589 -125 -294 0 -280 -3 -501 89
-321 133 -505 182 -890 238 -226 33 -274 36 -495 39 -135 1 -285 1 -335 -1z
m924 -193 c223 -38 448 -104 532 -154 187 -111 277 -260 287 -469 5 -114 -10
-192 -73 -378 -49 -146 -84 -218 -153 -316 -170 -240 -438 -411 -739 -471
-122 -24 -413 -24 -538 0 -353 69 -545 183 -697 413 -193 294 -269 532 -272
849 -1 130 2 160 22 222 25 81 69 144 127 185 69 48 272 89 560 114 99 8 212
19 250 24 39 5 183 7 320 5 199 -2 275 -7 374 -24z m3271 19 c47 -5 167 -16
267 -25 180 -15 296 -32 423 -61 223 -50 307 -217 280 -556 -22 -275 -95 -482
-258 -733 -163 -251 -342 -361 -707 -432 -135 -26 -427 -24 -555 4 -409 89
-727 360 -860 731 -117 328 -121 498 -17 695 48 91 185 202 305 247 136 52
390 106 617 133 67 8 426 6 505 -3z"/>
</g>
</svg>
