<?xml version="1.0" encoding="utf-8"?>
<!-- Generator: Adobe Illustrator 19.1.1, SVG Export Plug-In . SVG Version: 6.00 Build 0)  -->
<svg version="1.1" id="Calque_1" xmlns="http://www.w3.org/2000/svg" xmlns:xlink="http://www.w3.org/1999/xlink" x="0px" y="0px"
	 viewBox="0 0 96 96" style="enable-background:new 0 0 96 96;" xml:space="preserve">
<style type="text/css">
	.st0{fill:#FFFFFF;}
</style>
<g>
	<path class="st0" d="M48,0C21.5,0,0,21.5,0,48s21.5,48,48,48c26.5,0,48-21.5,48-48S74.5,0,48,0L48,0z M48,89.7
		C25,89.7,6.3,71,6.3,48S25,6.3,48,6.3C71,6.3,89.7,25,89.7,48S71,89.7,48,89.7L48,89.7z M48,89.7"/>
	<path class="st0" d="M48,21.9c-8.4,0-15.3,6.9-15.3,15.3c0,1.7,1.4,3.1,3.1,3.1c1.7,0,3.1-1.4,3.1-3.1c0-5,4-9,9-9c5,0,9,4,9,9
		c0,5-4,9-9,9c-1.7,0-3.1,1.4-3.1,3.1v11c0,1.7,1.4,3.1,3.1,3.1s3.1-1.4,3.1-3.1v-8.1c6.9-1.5,12.2-7.6,12.2-15
		C63.3,28.8,56.4,21.9,48,21.9L48,21.9z M48,21.9"/>
	<path class="st0" d="M48,65.7c-2.2,0-4,1.8-4,4c0,2.2,1.8,4,4,4c2.2,0,3.9-1.8,3.9-4C52,67.5,50.2,65.7,48,65.7L48,65.7z M48,65.7"
		/>
</g>
</svg>
