<?xml version="1.0" encoding="utf-8"?>
<!-- Generator: Adobe Illustrator 19.1.1, SVG Export Plug-In . SVG Version: 6.00 Build 0)  -->
<svg version="1.1" baseProfile="tiny" id="Calque_1"
	 xmlns="http://www.w3.org/2000/svg" xmlns:xlink="http://www.w3.org/1999/xlink" x="0px" y="0px" viewBox="0 0 19.1 17.2"
	 xml:space="preserve">
<g>
	<path fill="#FFFFFF" d="M17.2,0H1.8C0.8,0,0,0.8,0,1.8c0,1,0.8,1.8,1.8,1.8h15.4c1,0,1.8-0.8,1.8-1.8C19.1,0.8,18.2,0,17.2,0
		L17.2,0z M17.2,0"/>
	<path fill="#FFFFFF" d="M17.2,6.8H1.8C0.8,6.8,0,7.6,0,8.6c0,1,0.8,1.8,1.8,1.8h15.4c1,0,1.8-0.8,1.8-1.8
		C19.1,7.6,18.2,6.8,17.2,6.8L17.2,6.8z M17.2,6.8"/>
	<path fill="#FFFFFF" d="M17.2,13.5H1.8c-1,0-1.8,0.8-1.8,1.8c0,1,0.8,1.8,1.8,1.8h15.4c1,0,1.8-0.8,1.8-1.8
		C19.1,14.4,18.2,13.5,17.2,13.5L17.2,13.5z M17.2,13.5"/>
</g>
<g>
</g>
<g>
</g>
<g>
</g>
<g>
</g>
<g>
</g>
<g>
</g>
<g>
</g>
<g>
</g>
<g>
</g>
<g>
</g>
<g>
</g>
<g>
</g>
<g>
</g>
<g>
</g>
<g>
</g>
</svg>
