<?xml version="1.0" encoding="utf-8"?>
<!-- Generator: Adobe Illustrator 19.1.1, SVG Export Plug-In . SVG Version: 6.00 Build 0)  -->
<svg version="1.1" baseProfile="tiny" id="Calque_1"
	 xmlns="http://www.w3.org/2000/svg" xmlns:xlink="http://www.w3.org/1999/xlink" x="0px" y="0px" width="25.8px" height="25.8px"
	 viewBox="0 0 25.8 25.8" xml:space="preserve">
<g>
	<path fill-rule="evenodd" fill="none" d="M3.3,0h19.1c1.8,0,3.3,1.3,3.3,3.3v19.1c0,2-1.5,3.3-3.3,3.3H3.3c-1.8,0-3.3-1.3-3.3-3.3
		V3.3C0,1.3,1.5,0,3.3,0L3.3,0z M18.8,2.9c-0.6,0-1.2,0.5-1.2,1.2v2.8c0,0.6,0.5,1.2,1.2,1.2h2.9c0.6,0,1.2-0.5,1.2-1.2V4
		c0-0.6-0.5-1.2-1.2-1.2H18.8z M22.8,10.9h-2.3c0.2,0.7,0.3,1.4,0.3,2.2c0,4.3-3.6,7.8-8,7.8c-4.4,0-8-3.5-8-7.8
		c0-0.8,0.1-1.5,0.3-2.2H2.9v10.9c0,0.6,0.5,1,1,1h17.9c0.6,0,1-0.5,1-1V10.9z M12.9,7.8c-2.9,0-5.2,2.2-5.2,5s2.3,5,5.2,5
		c2.9,0,5.2-2.2,5.2-5S15.8,7.8,12.9,7.8L12.9,7.8z M12.9,7.8"/>
</g>
<g>
</g>
<g>
</g>
<g>
</g>
<g>
</g>
<g>
</g>
<g>
</g>
<g>
</g>
<g>
</g>
<g>
</g>
<g>
</g>
<g>
</g>
<g>
</g>
<g>
</g>
<g>
</g>
<g>
</g>
</svg>
