<svg id="logo" xmlns="http://www.w3.org/2000/svg" xmlns:xlink="http://www.w3.org/1999/xlink" viewBox="0 0 393.39 661.76"><defs><style>.cls-1{fill:url(#Dégradé_sans_nom_32);}.cls-2{fill:url(#Dégradé_sans_nom_32-2);}</style><linearGradient id="Dégradé_sans_nom_32" x1="56.58" y1="79.51" x2="350.09" y2="551.31" gradientUnits="userSpaceOnUse"><stop offset="0" stop-color="#ff0844"/><stop offset="1" stop-color="#2560fc"/></linearGradient><linearGradient id="Dégradé_sans_nom_32-2" x1="47.5" y1="85.15" x2="341.02" y2="556.95" xlink:href="#Dégradé_sans_nom_32"/></defs><title>logo</title><path class="cls-1" d="M391.09,277.59q-1.18-12.52-3-24.86v0c0-1.11,0-2.23,0-3.35,0-2.48.07-4.95.21-7.39a130.22,130.22,0,0,1,4.66-28.11c.14-2.44.21-4.91.21-7.39a130.38,130.38,0,0,0-26.26-78.69q-2.21-2.94-4.58-5.74a80.72,80.72,0,0,1-9.07,14.45,81.44,81.44,0,0,1-34.92,25.72c1.68,1.24,3.33,2.53,4.95,3.85,1.44,1.18,2.85,2.38,4.23,3.62l.19.17a130.6,130.6,0,0,1,42,77,146.34,146.34,0,0,1,1.6,19.57l0,1.11a34.88,34.88,0,0,1-.86,7.21q-.62,3.1-1,6.24c0,.27-.08.55-.11.82a117.69,117.69,0,0,0-.93,18.95c.1,3.43.17,6.94.23,10,0,2.82.07,5.22.1,6.75,0,.37,0,.74,0,1.11a76,76,0,0,0,3.72,22.12c4.7,14.81,4.51,30.72,4.51,47.81a130.67,130.67,0,0,1-7.35,43.39c-.31.89-.62,1.78-.91,2.66a113.9,113.9,0,0,1-27.46,43.84q-3.09,3.12-6.41,6a131.31,131.31,0,0,0-30.06,38.29c-.06-.17-.13-.33-.19-.5a79.79,79.79,0,0,0-5.14-10.8c-.18-.32-.36-.64-.55-.95-.48-.83-1-1.64-1.49-2.45a2.15,2.15,0,0,0-1.06-.83q-9.5-3.37-19.4-5.85a212.58,212.58,0,0,0-38.54-5.9h0a77.45,77.45,0,0,0-8.27-1.33H230c-.86-.1-1.72-.18-2.59-.24l-1.15-.08c-1.64-.1-3.3-.15-5-.15a80.71,80.71,0,0,0-21.39,2.86l.12.05-.41,0,.29.08a3.4,3.4,0,0,0-.46-.06l-.61-.07.23-.1a81.08,81.08,0,0,0-21.22-2.81q-2.46,0-4.89.15l-1.21.08c-.87.06-1.73.14-2.6.23a81.43,81.43,0,0,0-8.13,1.3l-.3,0A211.16,211.16,0,0,0,102.89,507a2.14,2.14,0,0,0-1.06.84c-.53.82-1,1.67-1.54,2.52l-.57,1a78.73,78.73,0,0,0-5.14,10.81.14.14,0,0,0,0,.06,131.67,131.67,0,0,0-14.41-21.85,131.48,131.48,0,0,0-16.51-16.94A118.87,118.87,0,0,1,28.8,432.3l-.15-.44a130.94,130.94,0,0,1-7.36-43.4c0-13.56-.44-26.65,2.34-38.95a73.82,73.82,0,0,0,1.79-14,68.34,68.34,0,0,0-.13-6.86c0-.07,0-.14,0-.21q-.29-4.31-.29-8.69a130.22,130.22,0,0,1,1-16c.14-1.26.31-2.51.5-3.76a123.46,123.46,0,0,0,1.3-25.26c-.12-2.39-.19-4.79-.19-7.21a132.4,132.4,0,0,1,1.6-20.54c.28-1.77.59-3.52.94-5.27a2.33,2.33,0,0,0,0-.53q-.43-5.34-.44-10.79a130.48,130.48,0,0,1,21.71-72.28,11.1,11.1,0,0,1,3.44-3.31A81.5,81.5,0,0,0,85.2,119.57c1.26-2.81.41-7.55-.07-8.82-2.46-6.49-7.54-23.27-9.42-30.55a.42.42,0,0,1,.79-.28c3.24,7.08,6.81,16.91,9.17,23.71A92.34,92.34,0,0,0,95.53,124l.12.17a16.74,16.74,0,0,0,9.07,6.84q3.36,1.05,6.81,1.9l1,.25.18,0a131.09,131.09,0,0,0,30.51,3.66h.34c2.26,0,4.5-.06,6.74-.17l1-.07c.86-.06,1.72-.12,2.6-.16q5.63-.44,11.11-1.34c3.43-.57,6.8-1.26,10.14-2.09a25.73,25.73,0,0,1,6.24-.74h0a49.17,49.17,0,0,1,23.53,6l.09,0A24.28,24.28,0,0,1,210.4,142a49.75,49.75,0,0,0,4.95,3.91l.29.2a48.87,48.87,0,0,0,20.92,8.06,48.11,48.11,0,0,0,6.72.46c.72,0,1.44,0,2.16,0l1.14-.06c1.53-.1,3-.28,4.54-.52A48.78,48.78,0,0,0,268,148a25.74,25.74,0,0,1,22.89-1.4c1.23.51,2.44,1,3.65,1.59l1.23.57q5.39,2.52,10.5,5.5a13.93,13.93,0,0,0,12.67.68,81.36,81.36,0,0,0,36.7-32.5,10.71,10.71,0,0,0,1-2.29l0-.07c.35-1.1.65-2.2.91-3.31a43.67,43.67,0,0,0-7.9-36.8c-.29-.39-.6-.76-.9-1.14a6.3,6.3,0,0,0-4.18-2.29c-.33,0-.27-.08-.57-.12a2.51,2.51,0,0,0-2.59,1.36c-.34.66-.67,1.33-1,2q-1-2.62-2.24-5.15a79.81,79.81,0,0,0-7-11.93c-.74-1.05-1.51-2.08-2.3-3.09A81.41,81.41,0,0,0,313,44.14a22.83,22.83,0,0,1-5.57-5.82c-.8-1.23-1.61-2.52-2.34-3.72a6.55,6.55,0,0,0-4.17-3c-7.46-1.68-5.32-.87-7.33-1.79a15.24,15.24,0,0,1-8.87-11.67.62.62,0,0,0-.79-.51,24.55,24.55,0,0,1-7.46,1.05,31.22,31.22,0,0,1-5-.39,30.9,30.9,0,0,1-11.82-4.51,15.11,15.11,0,0,0-3.4-1.61,14.87,14.87,0,0,0-6.6-.64c-2.35.3-4.72.49-7.13.58l-.56,0c-.88,0-1.76,0-2.65,0a80.92,80.92,0,0,1-33.78-7.34A13.44,13.44,0,0,0,199,3.68c-1.85.14-3.69.35-5.5.62a5.93,5.93,0,0,1-4.83-1.48,19.26,19.26,0,0,0-2.77-2,5.27,5.27,0,0,0-5.72.15,80.64,80.64,0,0,1-21.52,10.65,80.21,80.21,0,0,1-13.12,3c-2.7.39,3.14-5.73,10.68-13.3a.73.73,0,0,0-.57-1.25S151.08,1.49,146.06,3a53.19,53.19,0,0,0-31.2,25A16.77,16.77,0,0,1,112,31.6,78.74,78.74,0,0,1,98.53,42.36Q96.3,43.79,94,45.06l0,0a16.27,16.27,0,0,0-5.82,5.33l-2,3.07-.46.71,0,0-.36.58a56.43,56.43,0,0,0-3.09,5.6,66.19,66.19,0,0,1-3.64,6.34,25.9,25.9,0,0,1-4,4.64l-.63.56-3.47,3-4,3.48C60.94,83.37,54.62,89.1,48.14,95.58c-16,16-32.91,36.49-41.56,60.44a34.68,34.68,0,0,0-2,13.13c.82,20.49-.78,55.22-1.61,71.34,0,0,0,.08,0,.13A131.8,131.8,0,0,0,5.75,307a1.8,1.8,0,0,1,.09.65,1.09,1.09,0,0,1,0,.18q-.33,8.92-.33,17.94c0,2.18,0,4.35,0,6.53,0,.79,0,1.58,0,2.38q0,3.06.14,6.12c0,.2,0,.4,0,.61.07,2.28.15,4.55.26,6.82,0,1.25.11,2.51.18,3.76s.12,2.27.18,3.4l.15,2.46c.06,1,.13,2,.2,2.93.09,1.29.18,2.57.28,3.86s.2,2.56.31,3.84.22,2.56.34,3.84.24,2.55.37,3.82q.15,1.6.33,3.21c0,.35.07.69.11,1,.12,1.13.25,2.25.38,3.38.11,1,.23,1.94.34,2.91l.27,2.16c.15,1.21.31,2.43.47,3.64s.33,2.42.5,3.63c.37,2.65.77,5.29,1.18,7.92.15,1,.31,2,.47,2.93q.58,3.6,1.23,7.19.95,5.37,2,10.72.69,3.4,1.42,6.81c.16.72.31,1.45.48,2.17s.33,1.54.51,2.31c.27,1.23.55,2.45.84,3.67.21.91.42,1.81.64,2.72.25,1.06.51,2.12.77,3.17l1,3.83.72,2.81,1.11,4.16.84,3.07c0,.12.06.23.1.35q1.74,6.24,3.63,12.43c.34,1.12.69,2.25,1,3.37q3.38,10.75,7.23,21.31c.3.82.6,1.65.91,2.47.57,1.53,1.14,3.07,1.73,4.6q1.22,3.18,2.47,6.35,5.55,14,11.91,27.49c.52,1.11,1,2.22,1.58,3.33s1.06,2.21,1.6,3.31,1.07,2.2,1.62,3.29,1.09,2.21,1.65,3.29,1.11,2.19,1.67,3.27,1.12,2.17,1.69,3.26c0,0,0,0,0,0q1.11,2.13,2.25,4.25l.36.67c.29.51.73,1.34,1,1.85l.32.58q1.06,2,2.16,3.91,1.31,2.36,2.66,4.7c.42.75.85,1.49,1.28,2.23q1.22,2.1,2.45,4.18a.78.78,0,0,0,.11.18A213.32,213.32,0,0,0,98,610l.36.39.43.45c.62.66,1.24,1.32,1.87,2,1.41,1.48,2.85,2.93,4.3,4.36q7.52,7.41,15.74,14c1.78,1.43,3.56,2.82,5.37,4.18s3.79,2.81,5.72,4.17c1.78,1.26,3.57,2.48,5.39,3.68a2.06,2.06,0,0,0,3.19-1.62c.06-1.23.09-2.47.09-3.71,0-.6,0-1.19,0-1.79A81.19,81.19,0,0,0,253.86,641c1.74-1.57,3.41-3.2,5-4.91,0,.57,0,1.13,0,1.7,0,1.23,0,2.44.08,3.66a2.05,2.05,0,0,0,3.17,1.62c2.25-1.48,4.46-3,6.65-4.57,1.75-1.25,3.47-2.53,5.18-3.83,1.51-1.16,3-2.32,4.47-3.51a209.57,209.57,0,0,0,16.12-14.41A211.73,211.73,0,0,0,321.65,584c.72-1.2,1.43-2.38,2.13-3.57.35-.58.7-1.16,1-1.75.46-.77.91-1.53,1.35-2.3.74-1.28,1.48-2.56,2.2-3.84.62-1.1,1.25-2.19,1.86-3.29l.31-.56q4.31-7.73,8.35-15.63l0-.08q3.49-6.84,6.77-13.79c.88-1.84,1.73-3.69,2.59-5.54q1.5-3.27,3-6.57c.74-1.69,1.48-3.39,2.2-5.09q5.18-12.09,9.7-24.5c.41-1.12.81-2.24,1.21-3.36s.8-2.24,1.19-3.36c.19-.52.37-1,.54-1.55.3-.86.6-1.73.89-2.6q1.6-4.68,3.09-9.41c.36-1.13.72-2.27,1.07-3.41s.74-2.38,1.09-3.58.66-2.19,1-3.29.67-2.3,1-3.45c.21-.73.42-1.46.62-2.19.1-.34.19-.69.29-1l.42-1.52,1-3.53.93-3.54c.28-1.09.56-2.17.83-3.26.36-1.39.7-2.79,1-4.19.26-1.06.51-2.11.76-3.17a.83.83,0,0,0,0-.15l.81-3.51c.27-1.19.54-2.39.8-3.59a0,0,0,0,1,0,0c.26-1.19.52-2.38.77-3.57.41-1.9.8-3.8,1.18-5.72.21-1.05.42-2.09.62-3.14l.6-3.12q2-11,3.61-22.07c.16-1.12.31-2.25.46-3.37.22-1.61.43-3.22.63-4.84l.3-2.44c.29-2.52.58-5.05.84-7.59.23-2.2.44-4.39.64-6.59q.86-9.58,1.36-19.29c.13-2.37.23-4.75.32-7.13s.17-5.07.23-7.61c0-1,0-2,.05-2.93.06-2.85.08-5.69.08-8.55Q393.39,301.42,391.09,277.59Zm-96,269.47a0,0,0,0,0,0,0,214.9,214.9,0,0,0-13,34.26,2,2,0,0,1-1.19,1.34,214.61,214.61,0,0,1-60.69,14.75A2.06,2.06,0,0,1,218,596a130.81,130.81,0,0,1-5.24-36.77v0a2.05,2.05,0,0,0-2.23-2c-3.61.3-7.27.45-11,.45s-7.27-.15-10.85-.45a2.06,2.06,0,0,0-2.23,2.06v0A130.81,130.81,0,0,1,181.27,596a2.06,2.06,0,0,1-2.16,1.47,211.21,211.21,0,0,1-59.68-14.68,2,2,0,0,1-1.2-1.35,210.9,210.9,0,0,0-15-38.58h0c.31-.72.63-1.43,1-2.14.23-.51.47-1,.72-1.51.67-1.37,1.37-2.72,2.12-4,.31-.57.64-1.14,1-1.7s.71-1.2,1.09-1.79.75-1.18,1.14-1.76.62-.93.94-1.39a2,2,0,0,1,.59-.56l3-1.87.68-.28a78.81,78.81,0,0,1,14.69-2.11h.13a213.57,213.57,0,0,0,23.21-2.21c2.63-.4,5.24-.84,7.83-1.34h0q9.11-1.73,17.92-4.21c1.12-.31,2.24-.64,3.35-1l.06,0q8.67-2.61,17-5.91h0l.05,0q8,3.18,16.31,5.69l.12,0c1.32.4,2.66.79,4,1.16q8.76,2.48,17.81,4.19c2.6.49,5.21.94,7.84,1.33a210.26,210.26,0,0,0,23.31,2.22,80.54,80.54,0,0,1,14.67,2.09h0l.81.5c1,.63,2,1.26,3.06,1.91a2.28,2.28,0,0,1,.59.57c.32.46.63.93.93,1.39.52.78,1,1.57,1.51,2.38.31.51.62,1,.91,1.54s.75,1.29,1.1,2q.39.71.75,1.41c.14.26.27.51.39.77.27.52.53,1,.78,1.58s.58,1.23.86,1.85c.15.33.29.66.43,1s.23.51.33.77.21.5.32.76C296,545.11,295.56,546.08,295.09,547.06Z"/><path class="cls-2" d="M365.65,313.29a4.57,4.57,0,0,0-3.32-3.77q-5.29-1.44-10.76-2.44c-10.77-2-22.74-2.74-34-3.57-14.14-.4-28.13-1.35-42.25.7l-14.31,2.09a127.94,127.94,0,0,0-13,2.6c-2.55.65-5.12,1.34-7.41,2a42.93,42.93,0,0,0-4.15,1.38l-12.54,4.89c-3.72,1.45-7.31,3.64-11.52,4.11-1,.11-2,.24-3,.41l-10.06-.09h0l-10.06.09c-1-.17-2-.3-3-.41-4.21-.47-7.8-2.66-11.52-4.11l-12.54-4.89a42.93,42.93,0,0,0-4.15-1.38c-2.29-.62-4.86-1.31-7.41-2a127.94,127.94,0,0,0-13-2.6l-14.31-2.09c-14.12-2-28.11-1.1-42.25-.7-11.22.83-23.19,1.59-34,3.57q-5.46,1-10.76,2.44a4.57,4.57,0,0,0-3.32,3.77A20.55,20.55,0,0,0,33,316c0,.58,0,1.15.07,1.72a8.2,8.2,0,0,0,2.84,5.42,36.39,36.39,0,0,1,3.76,3.69c.43.51.84,1,1.23,1.53a6.21,6.21,0,0,1,1.23,3.95c-.06,1.14-.08,2.27-.08,3.41a81.27,81.27,0,0,0,3.17,22.53C48.86,371,54,382,63.23,391.82a79.61,79.61,0,0,0,9.55,8.55c5.76,4.53,12.84,6.82,20.07,8l.76.12a131.25,131.25,0,0,0,20,1.53A132.76,132.76,0,0,0,134,408.45a52.9,52.9,0,0,0,26.23-12.08l.13-.11a81.34,81.34,0,0,0,21.79-29.64,80,80,0,0,0,4.39-13.33,26.38,26.38,0,0,0,.38-9.25,19.16,19.16,0,0,1-.16-2.42c0-.55,0-1.09.07-1.62a2.75,2.75,0,0,1,1.78-2.34,31.32,31.32,0,0,1,21.54,0A2.75,2.75,0,0,1,212,340c.05.53.07,1.07.07,1.62a19.16,19.16,0,0,1-.16,2.42,26.38,26.38,0,0,0,.38,9.25,80,80,0,0,0,4.39,13.33,81.34,81.34,0,0,0,21.79,29.64l.13.11a52.7,52.7,0,0,0,9.77,6.63,52.77,52.77,0,0,0,16.46,5.45A132.76,132.76,0,0,0,285.14,410a131.25,131.25,0,0,0,20.05-1.53l.76-.12c7.23-1.18,14.31-3.47,20.07-8a79.61,79.61,0,0,0,9.55-8.55c9.26-9.82,14.37-20.8,18.05-33.54a81.27,81.27,0,0,0,3.17-22.53c0-1.14,0-2.27-.08-3.41a6.21,6.21,0,0,1,1.23-3.95c.39-.53.8-1,1.23-1.53a36.39,36.39,0,0,1,3.76-3.69,8.2,8.2,0,0,0,2.84-5.42c0-.57.07-1.14.07-1.72A20.55,20.55,0,0,0,365.65,313.29ZM175.83,346.52a43.19,43.19,0,0,1-1.45,9c-1,3.84-2.39,7.79-3.92,12l0,.13a43.37,43.37,0,0,1-1.81,4.27c-.28.57-.57,1.12-.88,1.67a58.66,58.66,0,0,1-43.92,29.22,82.82,82.82,0,0,1-9.77.58,81,81,0,0,1-28.61-5.18,40,40,0,0,1-19-15.21c-.37-.55-.73-1.1-1.09-1.65q-2.49-3.82-4.71-7.83A69.26,69.26,0,0,1,52,344.35c-.12-1.94-.21-3.89-.25-5.86,0-1.17,0-2.34.06-3.51a32.34,32.34,0,0,1,.65-5.1c.88-4.07,2.49-7.58,5.61-10.24a15.34,15.34,0,0,1,6.29-3.13q2.82-.69,5.68-1.25a124.19,124.19,0,0,1,15.46-2.07c4.32-.3,8.65-.61,13-1.11s8.5-.77,12.69-.86a130.74,130.74,0,0,1,47.18,7.67,32.4,32.4,0,0,1,5.09,3c1,.77,1.9,1.53,2.94,2.23a16.34,16.34,0,0,1,4.77,5.09,30.52,30.52,0,0,1,4.56,13.21A30,30,0,0,1,175.83,346.52Zm171.18-8c0,2-.13,3.92-.25,5.86a69.26,69.26,0,0,1-8.58,29.14q-2.22,4-4.71,7.83c-.36.55-.72,1.1-1.09,1.65a40,40,0,0,1-19,15.21,81,81,0,0,1-28.61,5.18,82.82,82.82,0,0,1-9.77-.58,58.66,58.66,0,0,1-43.92-29.22c-.31-.55-.6-1.1-.88-1.67a43.37,43.37,0,0,1-1.81-4.27l0-.13c-1.53-4.21-2.93-8.16-3.92-12a43.19,43.19,0,0,1-1.45-9,30,30,0,0,1,.1-4.13,30.52,30.52,0,0,1,4.56-13.21,16.34,16.34,0,0,1,4.77-5.09c1-.7,1.95-1.46,2.94-2.23a32.4,32.4,0,0,1,5.09-3,130.74,130.74,0,0,1,47.18-7.67q6.28.13,12.69.86c4.31.5,8.64.81,13,1.11a124.19,124.19,0,0,1,15.46,2.07q2.86.56,5.68,1.25a15.34,15.34,0,0,1,6.29,3.13c3.12,2.66,4.73,6.17,5.61,10.24A32.34,32.34,0,0,1,347,335C347,336.15,347,337.32,347,338.49Z"/></svg>