<svg id="Calque_1" data-name="Calque 1" xmlns="http://www.w3.org/2000/svg" viewBox="0 0 869.64 629.02"><title>disc_hifi-white2</title><g id="HFI"><path d="M0,345.3H28.29V464.22H172.42V345.3h28.29V628.83H172.42V492H28.29V628.83H0Z" style="fill:#cbaf82"/><path d="M378.71,345.3H520.53v27.75H407v88.86H520.53v27.75H407V628.83H378.71Z" style="fill:#cbaf82"/><path d="M565.75,345.3H594V628.83H565.75Z" style="fill:#cbaf82"/></g><path id="D" d="M.26,283.89V0H59q63.5,0,92.18,10.23Q192.31,24.7,215.5,60.41t23.19,85.11q0,42.65-18.38,75.07t-47.72,47.86q-29.35,15.44-82.26,15.44Zm27.13-26.83H60.11q58.69,0,81.4-7.33,31.94-10.41,50.22-37.5T210,146q0-41.07-19.82-70.19T135,35.89q-26.56-8.1-87.56-8.1h-20Z" style="fill:#cbaf82"/><path id="C" d="M869.64,56.94,847.32,73.26A121,121,0,0,0,803,38.52Q777.08,26.69,746.1,26.69a130.57,130.57,0,0,0-62.73,15.49q-28.86,15.5-44.74,41.62t-15.88,58.77q0,49.33,35.5,82.33t89.58,33q59.46,0,99.49-44.37l22.32,16.14a141.81,141.81,0,0,1-52.82,39.7q-31.66,14-70.72,14-74.28,0-117.19-47.12-36-39.79-36-96.08,0-59.22,43.59-99.65T745.71.1Q785.35.1,817.3,15T869.64,56.94Z" style="fill:#cbaf82"/><path id="S" d="M375.34,227.12l24.05-13.78Q424.8,258,458.09,258a58.35,58.35,0,0,0,26.75-6.34q12.51-6.34,19.05-17a42.52,42.52,0,0,0,6.54-22.6q0-13.6-9.62-26.65-13.28-18-48.49-43.37-35.41-25.54-44.07-36.94-15-19.11-15-41.35a60.57,60.57,0,0,1,8.85-32.16A61.94,61.94,0,0,1,427,8.71,74.53,74.53,0,0,1,461.94.35a77.19,77.19,0,0,1,37.43,9.46q17.41,9.47,36.85,34.83L513.13,61.36q-16-20.21-27.23-26.65a48.62,48.62,0,0,0-24.54-6.43q-17.13,0-28,9.92a31.79,31.79,0,0,0-10.87,24.44,40,40,0,0,0,3.85,17.09q3.85,8.27,14,18,5.58,5.15,36.56,27,36.75,25.91,50.42,46.13T541,211.5q0,29.41-23.38,51.09t-56.86,21.69A86.29,86.29,0,0,1,414,271.14Q393,258,375.34,227.12Z" style="fill:#cbaf82"/><g id="enceinte"><ellipse cx="762.64" cy="552.99" rx="12.97" ry="12.25" style="fill:#cbaf82"/><path d="M655.11,345V629h214V345Zm107.84,35.61c16.6,0,30.06,12.71,30.06,28.38s-13.46,28.38-30.06,28.38S732.89,424.69,732.89,409,746.35,380.64,762.95,380.64Zm-.31,229.84c-33.62,0-60.87-25.74-60.87-57.49S729,495.5,762.63,495.5s60.88,25.74,60.88,57.49S796.26,610.47,762.63,610.47Z" style="fill:#cbaf82"/></g><rect id="I" x="290.27" y="0.02" width="28" height="629" style="fill:#cbaf82"/><g id="HFI-2" data-name="HFI"><path d="M0,345.3H28.29V464.22H172.42V345.3h28.29V628.83H172.42V492H28.29V628.83H0Z" style="fill:#fff"/><path d="M378.71,345.3H520.53v27.75H407v88.86H520.53v27.75H407V628.83H378.71Z" style="fill:#fff"/><path d="M565.75,345.3H594V628.83H565.75Z" style="fill:#fff"/></g><path id="D-2" data-name="D" d="M.26,283.89V0H59q63.5,0,92.18,10.23Q192.31,24.7,215.5,60.41t23.19,85.11q0,42.65-18.38,75.07t-47.72,47.86q-29.35,15.44-82.26,15.44Zm27.13-26.83H60.11q58.69,0,81.4-7.33,31.94-10.41,50.22-37.5T210,146q0-41.07-19.82-70.19T135,35.89q-26.56-8.1-87.56-8.1h-20Z" style="fill:#fff"/><path id="C-2" data-name="C" d="M869.64,56.94,847.32,73.26A121,121,0,0,0,803,38.52Q777.08,26.69,746.1,26.69a130.57,130.57,0,0,0-62.73,15.49q-28.86,15.5-44.74,41.62t-15.88,58.77q0,49.33,35.5,82.33t89.58,33q59.46,0,99.49-44.37l22.32,16.14a141.81,141.81,0,0,1-52.82,39.7q-31.66,14-70.72,14-74.28,0-117.19-47.12-36-39.79-36-96.08,0-59.22,43.59-99.65T745.71.1Q785.35.1,817.3,15T869.64,56.94Z" style="fill:#fff"/><path id="S-2" data-name="S" d="M375.34,227.12l24.05-13.78Q424.8,258,458.09,258a58.35,58.35,0,0,0,26.75-6.34q12.51-6.34,19.05-17a42.52,42.52,0,0,0,6.54-22.6q0-13.6-9.62-26.65-13.28-18-48.49-43.37-35.41-25.54-44.07-36.94-15-19.11-15-41.35a60.57,60.57,0,0,1,8.85-32.16A61.94,61.94,0,0,1,427,8.71,74.53,74.53,0,0,1,461.94.35a77.19,77.19,0,0,1,37.43,9.46q17.41,9.47,36.85,34.83L513.13,61.36q-16-20.21-27.23-26.65a48.62,48.62,0,0,0-24.54-6.43q-17.13,0-28,9.92a31.79,31.79,0,0,0-10.87,24.44,40,40,0,0,0,3.85,17.09q3.85,8.27,14,18,5.58,5.15,36.56,27,36.75,25.91,50.42,46.13T541,211.5q0,29.41-23.38,51.09t-56.86,21.69A86.29,86.29,0,0,1,414,271.14Q393,258,375.34,227.12Z" style="fill:#fff"/><g id="enceinte-2" data-name="enceinte"><ellipse cx="762.64" cy="552.99" rx="12.97" ry="12.25" style="fill:#cbaf82"/><path d="M655.11,345V629h214V345Zm107.84,35.61c16.6,0,30.06,12.71,30.06,28.38s-13.46,28.38-30.06,28.38S732.89,424.69,732.89,409,746.35,380.64,762.95,380.64Zm-.31,229.84c-33.62,0-60.87-25.74-60.87-57.49S729,495.5,762.63,495.5s60.88,25.74,60.88,57.49S796.26,610.47,762.63,610.47Z" style="fill:#cbaf82"/></g><rect id="I-2" data-name="I" x="290.27" y="0.02" width="28" height="629" style="fill:#cbaf82"/></svg>