<?xml version="1.0" encoding="utf-8"?>
<!-- Generator: Adobe Illustrator 21.0.0, SVG Export Plug-In . SVG Version: 6.00 Build 0)  -->
<svg version="1.1" baseProfile="tiny" id="Calque_1"
	 xmlns="http://www.w3.org/2000/svg" xmlns:xlink="http://www.w3.org/1999/xlink" x="0px" y="0px" viewBox="0 0 512 512"
	 overflow="scroll" xml:space="preserve">
<g id="icomoon-ignore">
</g>
<g>
	<path d="M212.1,146.2C148.5,146.2,97,197.7,97,261.3s51.6,115.2,115.2,115.2c38.3,0,72.1-18.8,93.1-47.5l-51.9,6.2l-4.8-31.6
		l74-9.6c3.1-10.4,4.8-21.3,4.8-32.7C327.3,197.7,275.7,146.2,212.1,146.2z M212.1,308.7c-26.2,0-47.4-21.2-47.4-47.4
		c0-26.2,21.2-47.4,47.4-47.4c26.2,0,47.4,21.2,47.4,47.4C259.5,287.5,238.3,308.7,212.1,308.7z"/>
	<circle cx="212.1" cy="261.3" r="15"/>
	<circle cx="411.6" cy="161.1" r="19.6"/>
	<path d="M484.2,57.5H28.2C13.1,57.5,0.8,69.8,0.8,85V431c0,15.2,12.3,27.5,27.5,27.5h455.9c15.2,0,27.5-12.3,27.5-27.5V85
		C511.6,69.8,499.3,57.5,484.2,57.5z M417.3,208.1l-34.2,111.6l-37.3,4.4c-23.6,50.1-74.5,84.8-133.6,84.8
		c-81.5,0-147.6-66.1-147.6-147.6s66.1-147.6,147.6-147.6s147.6,66.1,147.6,147.6c0,9.6-1,19.1-2.7,28.2l0.3,0l28.8-88.5
		c-13.2-8.4-21.9-23.1-21.9-39.9c0-26.2,21.2-47.4,47.4-47.4c26.2,0,47.4,21.2,47.4,47.4C459,185.3,440.7,205.3,417.3,208.1z"/>
</g>
</svg>
