<?xml version="1.0" encoding="utf-8"?>
<!-- Generator: Adobe Illustrator 21.0.0, SVG Export Plug-In . SVG Version: 6.00 Build 0)  -->
<svg version="1.1" baseProfile="tiny" id="Calque_1"
	 xmlns="http://www.w3.org/2000/svg" xmlns:xlink="http://www.w3.org/1999/xlink" x="0px" y="0px" viewBox="0 0 512 512"
	 overflow="scroll" xml:space="preserve">
<g id="icomoon-ignore">
</g>
<g>
	<path d="M75.5,269.8c-24.9,0-45.1,20.3-45.1,45.1s20.2,45.1,45.1,45.1s45.1-20.3,45.1-45.1S100.4,269.8,75.5,269.8z M75.5,335.9
		c-11.6,0-21-9.4-21-21s9.4-21,21-21s21,9.4,21,21S87.1,335.9,75.5,335.9z"/>
	<path d="M151.1,377.9V151.2c0-9.3-7.5-16.8-16.8-16.8H16.8C7.5,134.5,0,142,0,151.2v226.6c0,9.3,7.5,16.8,16.8,16.8h117.5
		C143.6,394.7,151.1,387.1,151.1,377.9z M75.5,176.4c11.6,0,21,9.4,21,21c0,11.6-9.4,21-21,21s-21-9.4-21-21
		C54.6,185.8,63.9,176.4,75.5,176.4z M75.5,369.1c-29.9,0-54.2-24.3-54.2-54.2s24.3-54.2,54.2-54.2s54.2,24.3,54.2,54.2
		S105.4,369.1,75.5,369.1z"/>
	<path d="M344.1,352.7v-25.2H167.9v25.2c0,9.3,7.5,16.8,16.8,16.8h142.7C336.6,369.5,344.1,362,344.1,352.7z"/>
	<path d="M344.1,260.4c0-9.3-7.5-16.8-16.8-16.8H184.7c-9.3,0-16.8,7.5-16.8,16.8v58.8h176.3V260.4z M268.6,302.3h-83.9v-42h83.9
		V302.3z M302.2,302.3c-11.6,0-21-9.4-21-21c0-11.6,9.4-21,21-21s21,9.4,21,21C323.1,292.9,313.8,302.3,302.2,302.3z"/>
	<path d="M436.5,269.8c-24.9,0-45.1,20.3-45.1,45.1s20.3,45.1,45.1,45.1s45.1-20.3,45.1-45.1S461.4,269.8,436.5,269.8z M436.5,335.9
		c-11.6,0-21-9.4-21-21s9.4-21,21-21s21,9.4,21,21S448.1,335.9,436.5,335.9z"/>
	<path d="M495.2,134.5H377.7c-9.3,0-16.8,7.5-16.8,16.8v226.6c0,9.3,7.5,16.8,16.8,16.8h117.5c9.3,0,16.8-7.5,16.8-16.8V151.2
		C512,142,504.5,134.5,495.2,134.5z M436.5,176.4c11.6,0,21,9.4,21,21c0,11.6-9.4,21-21,21s-21-9.4-21-21
		C415.5,185.8,424.9,176.4,436.5,176.4z M436.5,369.1c-29.9,0-54.2-24.3-54.2-54.2s24.3-54.2,54.2-54.2s54.2,24.3,54.2,54.2
		S466.3,369.1,436.5,369.1z"/>
	<rect x="184.7" y="377.9" width="33.6" height="16.8"/>
	<rect x="293.8" y="377.9" width="33.6" height="16.8"/>
</g>
</svg>
