<?xml version="1.0" encoding="utf-8"?>
<!-- Generator: Adobe Illustrator 21.0.0, SVG Export Plug-In . SVG Version: 6.00 Build 0)  -->
<svg version="1.1" baseProfile="tiny" id="Calque_1"
	 xmlns="http://www.w3.org/2000/svg" xmlns:xlink="http://www.w3.org/1999/xlink" x="0px" y="0px" viewBox="0 0 512 512"
	 overflow="scroll" xml:space="preserve">
<g id="icomoon-ignore">
</g>
<g>
	<circle cx="39.3" cy="240.7" r="8.3"/>
	<circle cx="99.1" cy="240.7" r="6"/>
	<path d="M500.3,195.4H11.7c-6.4,0-11.7,5.3-11.7,11.7v67.3c0,6.4,5.3,11.7,11.7,11.7h488.6c6.4,0,11.7-5.3,11.7-11.7v-67.3
		C512,200.6,506.7,195.4,500.3,195.4z M39.3,270.3c-16.3,0-29.6-13.2-29.6-29.6c0-16.3,13.2-29.6,29.6-29.6
		c16.3,0,29.6,13.2,29.6,29.6C68.9,257.1,55.7,270.3,39.3,270.3z M99.1,263.2c-12.4,0-22.4-10-22.4-22.4c0-12.4,10-22.4,22.4-22.4
		c12.4,0,22.4,10,22.4,22.4C121.6,253.1,111.5,263.2,99.1,263.2z M412.9,263.2c-12.4,0-22.4-10-22.4-22.4c0-12.4,10-22.4,22.4-22.4
		c12.4,0,22.4,10,22.4,22.4C435.3,253.1,425.2,263.2,412.9,263.2z M472.7,270.3c-16.3,0-29.6-13.2-29.6-29.6
		c0-16.3,13.2-29.6,29.6-29.6c16.3,0,29.6,13.2,29.6,29.6C502.2,257.1,489,270.3,472.7,270.3z"/>
	<circle cx="472.7" cy="240.7" r="8.3"/>
	<circle cx="412.9" cy="240.7" r="6"/>
</g>
</svg>
