<?xml version="1.0" encoding="utf-8"?>
<!-- Generator: Adobe Illustrator 21.0.0, SVG Export Plug-In . SVG Version: 6.00 Build 0)  -->
<svg version="1.1" baseProfile="tiny" id="Calque_1"
	 xmlns="http://www.w3.org/2000/svg" xmlns:xlink="http://www.w3.org/1999/xlink" x="0px" y="0px" viewBox="0 0 512 512"
	 overflow="scroll" xml:space="preserve">
<g id="icomoon-ignore">
</g>
<path d="M511.9,182.9c0-5,2.7-3.8-2.3-3.8H12.4c-5,0-11.9-1.2-11.9,3.8v130.2c0,5,6.9,10.8,11.9,10.8h8.5c0,9,4.1,9,9,9h20.4
	c5,0,9,0,9-9h403.3c0,9,4.1,9,9,9h20.4c5,0,9,0,9-9h8.5c5,0,2.3-5.9,2.3-10.8V182.9z M68.4,300.2c-16.5,0-29.8-13.3-29.8-29.8
	c0-16.5,13.3-29.8,29.8-29.8s29.8,13.3,29.8,29.8C98.2,286.8,84.9,300.2,68.4,300.2z M412.3,301.3H109.2v-58.8h303.2V301.3z
	 M453,300.2c-16.5,0-29.8-13.3-29.8-29.8c0-16.5,13.3-29.8,29.8-29.8c16.5,0,29.8,13.3,29.8,29.8C482.8,286.8,469.5,300.2,453,300.2
	z"/>
</svg>
