<?xml version="1.0" encoding="utf-8"?>
<!-- Generator: Adobe Illustrator 21.0.0, SVG Export Plug-In . SVG Version: 6.00 Build 0)  -->
<svg version="1.1" baseProfile="tiny" id="Calque_1"
	 xmlns="http://www.w3.org/2000/svg" xmlns:xlink="http://www.w3.org/1999/xlink" x="0px" y="0px" viewBox="0 0 512 512"
	 overflow="scroll" xml:space="preserve">
<g id="icomoon-ignore">
</g>
<path d="M489.9,157.3H24.1C10.9,157.3,0,168.2,0,181.4V354c0,13.3,10.9,24.1,24.1,24.1h24.1c0,9.7,8.4,16.9,16.9,16.9h55.5
	c9.7,0,16.9-7.2,16.9-16.9h249.8c0,9.7,7.2,16.9,16.9,16.9h54.3c9.7,0,16.9-7.2,16.9-16.9h12.1c13.3,0,24.1-10.9,24.1-24.1V181.4
	C514.1,168.2,503.2,157.3,489.9,157.3z M352.4,304.5c-1.2,9.7-9.7,16.9-19.3,16.9c-10.9,0-19.3-8.4-19.3-19.3
	c0-10.9,8.4-19.3,19.3-19.3s19.3,8.4,19.3,18.1h-4.8v4.8h4.8V304.5z M118.3,228.5v-35h275.1v36.2H118.3V228.5z M452.5,316.6
	l-3.6-3.6l-2.4,3.6l4.8,4.8c-6,8.4-15.7,14.5-27.8,14.5c-18.1,0-33.8-14.5-33.8-33.8s14.5-33.8,33.8-33.8
	c18.1,0,33.8,14.5,33.8,33.8C456.2,306.9,454.9,311.8,452.5,316.6z"/>
</svg>
