<?xml version="1.0" encoding="utf-8"?>
<!-- Generator: Adobe Illustrator 19.1.1, SVG Export Plug-In . SVG Version: 6.00 Build 0)  -->
<svg version="1.1" id="Calque_1" xmlns="http://www.w3.org/2000/svg" xmlns:xlink="http://www.w3.org/1999/xlink" x="0px" y="0px"
	 viewBox="0 0 118 99.7" style="enable-background:new 0 0 118 99.7;" xml:space="preserve">
<style type="text/css">
	.st0{fill:#FFFFFF;}
</style>
<g>
	<path class="st0" d="M73.5,92.7c-1.4-1.4-2.2-3.3-2.2-5.3l0-4.9l-4.9,0c-2,0-3.9-0.8-5.3-2.2c-1.4-1.4-2.2-3.3-2.2-5.3V61.2
		c0-4.2,3.4-7.5,7.5-7.5h4.9v-4.9c0-4.2,3.4-7.5,7.5-7.5h13.7c4.2,0,7.5,3.4,7.5,7.5l0,4.9h4.9c2,0,3.9,0.8,5.3,2.2
		c0.3,0.3,0.5,0.5,0.7,0.8c4.6-8.1,7-16.3,7-24.4C118,14.5,103.5,0,85.7,0c-8,0-15.7,4.9-23,14.7c-1.4,1.9-2.7,3.8-3.8,5.6
		c-1.1-1.8-2.3-3.7-3.8-5.6C48,4.9,40.3,0,32.3,0C14.5,0,0,14.5,0,32.3C0,41.5,3,50.8,9,60c4.6,7,10.9,14,18.8,20.7
		c13.3,11.2,26.4,17.8,26.9,18.1c1.6,0.8,3.2,1,4.3,1c1.1,0,2.7-0.2,4.3-1C63.6,98.6,67.7,96.5,73.5,92.7
		C73.6,92.8,73.6,92.7,73.5,92.7L73.5,92.7z M73.5,92.7"/>
	<path class="st0" d="M92.6,46.7l-13.7,0c-1.1,0-2,0.9-2,2l0,8.5c0,1.1-0.9,2-2,2l-8.4,0c-1.1,0-2,0.9-2,2v13.7c0,1.1,0.9,2,2,2
		l8.4,0c1.1,0,2,0.9,2,2l0,8.5c0,1.1,0.9,2,2,2l13.7,0c1.1,0,2-0.9,2-2l0-8.5c0-1.1,0.9-2,2-2l8.4,0c1.1,0,2-0.9,2-2l0-13.7
		c0-1.1-0.9-2-2-2l-8.4,0c-1.1,0-2-0.9-2-2l0-8.5C94.6,47.6,93.7,46.7,92.6,46.7L92.6,46.7z M92.6,46.7"/>
</g>
</svg>
