<svg xmlns="http://www.w3.org/2000/svg" viewBox="0 0 428.27 144.64"><title>logos-carlzone</title><g id="Calque_2" data-name="Calque 2"><g id="TXT"><path d="M15.58,44.27C16.39,27.9,27.74,20.41,39.67,21c8,.4,17.36,4.68,22.47,15.46l4.07.2L63.45,11.85l-2.62-.13-2.67,2.86A44.46,44.46,0,0,0,38.61,9c-13.29-.66-21.49,4-26.49,8.91C4.67,25.05.63,34,.07,45.36c-.54,10.91,2.15,21.47,9.41,30a30.19,30.19,0,0,0,15.83,9.82A45.82,45.82,0,0,0,29,70.91C20,66.44,15,56.51,15.58,44.27Z" style="fill:#1f2328"/><path d="M40.93,82.37a24.67,24.67,0,0,1-8.47-3.06,45.82,45.82,0,0,1-4.72,14,43,43,0,0,0,8.67,1.95c15,1.86,26.77-4.51,36.39-17.45l-8-5.95C55.84,78.81,51,84.1,40.93,82.37Z" style="fill:#1f2328"/><path d="M123.94,75a2.44,2.44,0,0,1-2-.93c-3.4-3.61-.29-24.74-7.28-32.17a14.49,14.49,0,0,0-2.8-2.3c-2.77,3-5.39,6-8.7,8.28A6.12,6.12,0,0,1,105,52.24c-11.65.93-19.51,2.89-24,7.63A15.2,15.2,0,0,0,77,70.39c0,9.28,5.44,15.46,15.63,15.46,6.12,0,11.36-1.86,17.18-4.85,1.16,2.27,4.76,3.81,8.16,3.81a19.31,19.31,0,0,0,10.39-3l-1.94-7.22A16.14,16.14,0,0,1,123.94,75ZM89.12,73.62s-5-13.8,17.94-14.88L108.79,72C107,75.74,93,77.68,89.12,73.62Z" style="fill:#1f2328"/><path d="M83,50.12C84.44,46,88.61,43.5,94.31,43a8.7,8.7,0,0,1,6.23,1.39c3.09-2.56,5.43-5.8,7.91-9-3-1.54-7-2.32-12.57-1.81a43.64,43.64,0,0,0-19.22,6.22,101.25,101.25,0,0,1,4,11Z" style="fill:#1f2328"/><path d="M149.43,76.06V65.47c-4.16-1.55-8.45-3.11-13.2-3.28v14c0,2.68-3.93,4.95-6.74,5.36V84.1h26.79V81.52C153.65,81.42,149.43,78.63,149.43,76.06Z" style="fill:#1f2328"/><path d="M161.81,28.38c-5.1.71-9.33,3.38-14.19,10.72l-1.19-8.58-2.6.36c-3.17,4.71-7.62,8.66-12.92,12.83l.37,2.66c2.8-.29,4.34,1.58,4.74,4.44l.93,6.69c4.73-.49,9.19.46,13.53,1.42l-1.26-9c3.36-4.74,6.71-8.12,10.85-8.69,2.21-.31,4.44.21,7.16,2.85l2.39-1.17-5.28-14.67A21,21,0,0,0,161.81,28.38Z" style="fill:#1f2328"/><path d="M175.06,22.29l4.2,47c4.56-.42,8.8-2.05,13.09-4l-5.54-62-2.51.22a57.66,57.66,0,0,1-13.73,12.1l.26,2.87C173.33,18.3,174.79,19.31,175.06,22.29Z" style="fill:#1f2328"/><path d="M190.7,75.44v-4.5c-4.45,1.55-8.81,2.79-13.4,2.81V76c0,3.4-3.93,5.05-6.94,5.57V84.1h27.18V81.62C194.92,81.11,190.7,79.46,190.7,75.44Z" style="fill:#1f2328"/><path d="M207.1,17.12l2.13.21a1.85,1.85,0,0,0,1.5-.55c2.81-2.87,4.73-4.21,8.61-3.82l22.49,2.26a.06.06,0,0,1,0,.1l-2.67,3.32c7.58-1.2,15.18-2.68,22.75-4.46L266.17,9v0l.35-3.51a.06.06,0,0,0-.06-.07L213.08,0A.06.06,0,0,0,213,0l-6,17A.06.06,0,0,0,207.1,17.12Z" style="fill:#1f2328"/><path d="M259.78,65.85c-3.11,4.23-5,6-12,6H223.59a.06.06,0,0,1-.05-.1l33.82-51.5C250,22.76,242.59,25,235.16,26.94L200.47,80.27a.06.06,0,0,0,0,0V84a.06.06,0,0,0,.06.06L263.07,84a.06.06,0,0,0,.06-.06l0-18a.06.06,0,0,0-.06-.06Z" style="fill:#1f2328"/><path d="M277.81,55.77c-.43-6.94,3.63-11.87,9.65-13a10.24,10.24,0,0,1,7.44,1.62c4.36-2.67,8.78-5.25,13.19-7.86-4.92-5.65-12.34-8.92-21.66-7.23C272.58,31.85,262.27,43,265.15,58.87a28.88,28.88,0,0,0,2,6.46A107.93,107.93,0,0,1,277.8,56,.35.35,0,0,1,277.81,55.77Z" style="fill:#1f2328"/><path d="M308.84,40.78c-3.39,2.82-6.79,5.62-10.14,8.46a19.91,19.91,0,0,1,6.93,9.57h0c2.58,7.59-.71,13.91-7,16.11S285.25,72.38,282,64.74A107.93,107.93,0,0,0,273,75.69c5.81,9,16.29,13.71,28,9.58,14.1-5,21.17-18.19,16.2-32.28A28,28,0,0,0,308.84,40.78Z" style="fill:#1f2328"/><path d="M371.18,82.48l3.95-22.33c1.16-6.56-.25-12.57-4.55-16.38-2.8,3.73-6.5,6.63-10.12,9.45,1.25,1.67,1.59,4,1.08,6.83l-3.43,19.39c-.5,2.84-4.77,3.87-7.44,3.92l-.5,2.84,26.28,4.65L377,88C375,87.24,370.75,84.91,371.18,82.48Z" style="fill:#1f2328"/><path d="M339.89,76.16V52.86c4.66-3.51,8.25-4.85,12-4.85a7.61,7.61,0,0,1,5.41,1.81c3.07-3.41,6.21-6.91,8.32-11.07a16.72,16.72,0,0,0-8.88-2.29c-6.8,0-11.65,2.47-16.89,6.8v-6.8h-2.52c-4.56,5.05-10.87,8.87-14.47,10.93V50c2.62.1,3.88,1.86,3.88,4.54V75.33c0,3.3-.78,5.46-3.88,6.08V84.1h23.83V81.32C344,80.9,339.89,78.63,339.89,76.16Z" style="fill:#1f2328"/><path d="M394.77,65.67l33.14-7C425.23,48.78,420.59,44,420.59,44a21,21,0,0,0-14.27-7.29c-12.08-1.2-23.65,6.26-25.24,22.36-.45,4.49-.57,23.54,18.76,26.47,1.6-3.76,3.26-7.45,5.11-11h-.24A11.12,11.12,0,0,1,394.77,65.67ZM404.9,46.16c3.57.35,5.7,2.53,7.46,6.44L394.46,56C394.77,50.85,398.52,45.52,404.9,46.16Z" style="fill:#1f2328"/><path d="M420.87,68.49c-2.94,4.18-7.16,8.91-13.38,9.81-1,3.83-1.81,7.8-2.52,11.82.53,0,1.07-.09,1.62-.16,10.69-1.37,16.28-7.39,21.68-15.67Z" style="fill:#1f2328"/></g><g id="Le_film" data-name="Le film"><path d="M164.12,142.36h14v1.88H161.89V117.14h2.23Z" style="fill:#1f2328"/><path d="M188.82,144.64a8.07,8.07,0,0,1-6.35-2.76,10.34,10.34,0,0,1-2.44-7.1v-1a10.54,10.54,0,0,1,2.47-7.19,7.79,7.79,0,0,1,6.12-2.83,7,7,0,0,1,5.67,2.36,9.47,9.47,0,0,1,2,6.34v1.73h-14v.61a9.12,9.12,0,0,0,1.74,5.72,5.72,5.72,0,0,0,4.81,2.27,9.22,9.22,0,0,0,3.39-.61,7.38,7.38,0,0,0,2.57-1.63l.95,1.53a8.23,8.23,0,0,1-2.78,1.85A10.47,10.47,0,0,1,188.82,144.64Zm-.2-19a5.43,5.43,0,0,0-4.23,1.84,8,8,0,0,0-1.94,4.67l.06.11H194v-.46a6.82,6.82,0,0,0-1.41-4.42A4.88,4.88,0,0,0,188.61,125.63Z" style="fill:#1f2328"/><path d="M211.36,144.24V125.93H208V124.1h3.35v-2.57a6.13,6.13,0,0,1,6.68-6.72,11.88,11.88,0,0,1,2.53.28,15.75,15.75,0,0,1,2.61.82l-.37,1.92a15.75,15.75,0,0,0-2.2-.73,10.19,10.19,0,0,0-2.42-.26,4.55,4.55,0,0,0-3.43,1.21,4.83,4.83,0,0,0-1.16,3.48v2.57h4.71v1.83H213.6v18.32Zm13,0h-2.23V124.1h2.23Z" style="fill:#1f2328"/><path d="M232.3,144.24h-2.22v-29h2.22Z" style="fill:#1f2328"/><path d="M239.5,124.1l.2,3.31a7.11,7.11,0,0,1,2.58-2.72,7.29,7.29,0,0,1,3.83-1,6.45,6.45,0,0,1,3.85,1.11,6.12,6.12,0,0,1,2.22,3.38,7.65,7.65,0,0,1,2.6-3.29,6.87,6.87,0,0,1,4.07-1.19,6.08,6.08,0,0,1,5,2.14q1.76,2.14,1.76,6.63v11.75h-2.23V132.46q0-3.72-1.32-5.26a4.56,4.56,0,0,0-3.65-1.54,5,5,0,0,0-3.95,1.55,7.53,7.53,0,0,0-1.77,4c0,.14,0,.27,0,.41s0,.31,0,.52v12.08h-2.25V132.46q0-3.65-1.33-5.22a4.54,4.54,0,0,0-3.66-1.57,5.56,5.56,0,0,0-3.73,1.18,6.27,6.27,0,0,0-1.95,3.19v14.21h-2.23V124.1Z" style="fill:#1f2328"/></g></g></svg>