<?xml version="1.0" encoding="utf-8"?>
<!-- Generator: Adobe Illustrator 19.1.1, SVG Export Plug-In . SVG Version: 6.00 Build 0)  -->
<svg version="1.1" id="Calque_1" xmlns="http://www.w3.org/2000/svg" xmlns:xlink="http://www.w3.org/1999/xlink" x="0px" y="0px"
	 viewBox="0 0 151.8 145.3" style="enable-background:new 0 0 151.8 145.3;" xml:space="preserve">
<style type="text/css">
	.st0{fill:#FFFFFF;}
</style>
<g>
	<g>
		<path class="st0" d="M151.8,86.7c-0.4-1.5-2-2.4-3.5-1.9c-0.8,0.2-1.4,0.8-1.7,1.4l-5.7,1.6l3.8-3.9c0.8,0,1.5-0.2,2.1-0.8
			c1.1-1.1,1.1-2.9-0.1-4c-1.1-1.1-2.9-1.1-4,0c-0.6,0.6-0.8,1.3-0.8,2.1l-4.1,4.2l1.6-6.3c0.7-0.4,1.2-1,1.4-1.8
			c0.4-1.5-0.5-3-2-3.4c-1.5-0.4-3,0.5-3.4,2c-0.2,0.8,0,1.6,0.4,2.2l-2.1,8.3c0,0-4.2,0.1-4.6,0.1c0,0,0-0.1-0.1-0.1
			c-0.1-0.2-9.9-16.1-10-16.3l-0.1,0c-0.7-4.7-2.3-9-4.8-12.2c-12.5-16.2-7-32.9-7-32.9l0,0l0.9-2.6c1.3-3.6,0-7.6-3.2-9.8l-17-11.4
			c-2.4-1.6-5.5-1.9-8.1-0.6C77,2,75.2,4.5,74.9,7.4l-2.2,20.4c-0.4,3.8,1.8,7.4,5.4,8.7c0,0,6.6,1.9,8.5,3.1
			C90,41.8,97.2,51,92.3,62.1c-1.7,0.1-17.6,0.7-17.6,0.7c0,0,0,0,0,0c-0.1-0.6-0.2-1.2-0.2-1.5l3.3-9.7c0.8-0.3,1.5-0.9,1.7-1.8
			c0.5-1.6-0.3-3.2-1.8-3.8c-1.5-0.5-3.2,0.3-3.8,1.8c-0.3,0.9-0.1,1.7,0.3,2.5L72,56.7l-1.2-6c0.5-0.7,0.8-1.5,0.6-2.4
			c-0.3-1.6-1.9-2.7-3.5-2.3c-1.6,0.3-2.7,1.9-2.4,3.5c0.2,0.9,0.8,1.6,1.5,2l1.3,6.5l-4.8-5.4c0.1-0.8-0.1-1.7-0.7-2.4
			c-1.1-1.2-3-1.4-4.2-0.3c-1.2,1.1-1.4,3-0.3,4.2c0.6,0.7,1.4,1,2.3,1l6.3,7.2c-0.9,9.7,4.8,9.9,15.4,12.7
			c-6,5.8-14.7,11.7-26.4,13.7c0.9-6.3,1.9-8.6-1.2-12.8c-0.3-0.2-1.2-1.2-2.3-1.8c-2.7-1.5-3.9-1.2-10.3-0.9L38.2,65
			c0.3-0.8,0.3-1.7-0.1-2.5c-0.8-1.5-2.6-2-4-1.3c-1.5,0.7-2,2.5-1.3,4c0.4,0.8,1.2,1.3,2,1.5l3.1,5.9l-5.2-3.3
			c-0.1-0.8-0.5-1.6-1.3-2.1c-1.4-0.9-3.2-0.5-4.1,0.9c-0.9,1.4-0.5,3.2,0.9,4.1c0.8,0.5,1.7,0.5,2.5,0.3l5.5,3.5l0,0.1L29,75.8
			c-1.8-2.3-5.2-1-5.3,1.7c-0.1,1.6,1.2,3,2.8,3.1c0.9,0,1.7-0.4,2.3-1l10,0.4l0-0.1c0.3,0.1,6.1,1.6,6.5,1.7
			c-0.7,1.4-4.1,8.5-4.1,8.5C24.5,90-0.1,83.6,5.8,45.3c0.2-1.2-1.6-1.7-2-0.5c-5.6,15.9-11,48.3,30.1,63.4c0,0,9.7,2.9,21.4,4.5
			c0.3,0.4,0.6,0.7,1,1.1c0.2,0.3,6.9,7.7,7.2,7.9c-0.3,0.3-3.5,3.1-4.6,4.1l0-0.1l-9.2,4c-0.8-0.4-1.6-0.4-2.5-0.1
			c-1.5,0.7-2.2,2.4-1.5,3.9c0.6,1.5,2.4,2.2,3.9,1.5c0.8-0.4,1.4-1.1,1.6-1.9l6.1-2.7l-3.6,4.9c-0.8,0.1-1.7,0.4-2.2,1.2
			c-1,1.3-0.7,3.2,0.6,4.2c1.3,1,3.2,0.7,4.2-0.6c0.5-0.7,0.6-1.6,0.4-2.4l3.9-5.3l-0.8,7.2c-0.7,0.5-1.2,1.2-1.3,2.1
			c-0.2,1.6,1,3.1,2.6,3.3c1.6,0.2,3.1-1,3.3-2.6c0.1-0.9-0.3-1.7-0.8-2.3l1-9.4c0,0,2.1-0.9,5-2.2c0.8-0.4,1.7-1,2.4-1.7
			c0.7-0.4,1.9-3,1.8-2.9c1.5-4.1-0.3-7-1.7-9.7c25.9,0.8,39.7-11.6,44.8-25.5c1.2,1.1,5.3,4.8,5.3,4.8c4.8,3.3,6,2.2,16.3-1l0,0
			l9.2-2.6c0.6,0.4,1.4,0.5,2.2,0.3C151.3,89.8,152.2,88.2,151.8,86.7L151.8,86.7z M151.8,86.7"/>
	</g>
</g>
</svg>
