<svg id="Calque_1" data-name="Calque 1" xmlns="http://www.w3.org/2000/svg" viewBox="0 0 110.15 73.24"><defs><style>.cls-1{fill:#fff;}.cls-2{fill:#088df6;}</style></defs><title>White-logoPostIt</title><path class="cls-1" d="M237.86,346.29a5.31,5.31,0,0,1,4.69-2.46c6.55,0,10,7.41,10,21.77s-3.41,21.77-10,21.77a5.32,5.32,0,0,1-4.69-2.46v22.42h-7.73V344.77h7.73v1.53Zm6.23,19.32c0-10.93-1.33-16.54-4-16.54-1.49,0-2.24,4-2.24,16.54s0.75,16.54,2.24,16.54C242.77,382.15,244.1,376.55,244.1,365.61Z" transform="translate(-230.14 -334.11)"/><path class="cls-1" d="M267.49,343.84c8.58,0,11.3,7.41,11.3,21.77,0,16.54-3.84,21.77-11.3,21.77-8.58,0-11.3-7.41-11.3-21.77C256.19,349.07,260,343.84,267.49,343.84Zm2.88,21.77c0-11.26-.69-17-2.88-17-1.92,0-2.88,4.12-2.88,17,0,11.26.69,17,2.88,17C269.4,382.66,270.36,378.54,270.36,365.61Z" transform="translate(-230.14 -334.11)"/><path class="cls-1" d="M288.65,372.7c0,7.32,1,9.22,2.77,9.22,0.91,0,1.39-2.13,1.39-6.25,0-3.71-.64-6-2.29-7.09-5.22-3.34-7.73-7.27-7.73-12.46,0-7.78,3.3-11.81,8.69-11.81s8.15,2.32,8.15,15.1l-6.45-1c0-7.78-.59-9.36-1.71-9.36s-1.87,2.22-1.87,6.53c0,3.94,1,6.25,2.77,7.09,6.39,3,8.1,7.64,8.1,12.46,0,7.78-3.09,11.81-9.06,11.81-6.45,0-9.8-3.2-9.8-15.33Z" transform="translate(-230.14 -334.11)"/><path class="cls-1" d="M303.36,386.56V349.77h-2.12v-5h2.12v-5.1l7.73-5.56v10.65h4.18v5h-4.18v30.79" transform="translate(-230.14 -334.11)"/><path class="cls-2" d="M316.07,380.37v6.09h-7.71" transform="translate(-230.14 -334.11)"/><path class="cls-2" d="M328.46,353.69h-5.55v-4.83h5.55v4.83Zm-5.55,2.8h5.55v30h-5.55v-30Z" transform="translate(-230.14 -334.11)"/><path class="cls-2" d="M337.28,381.5c0,1,0,1.2.31,1.2h1.26v3.76h-3.56c-3.75,0-3.56-.87-3.56-5V360.09h-1.52v-3.6h1.52v-3.66l5.55-4v7.66h3v3.6h-3V381.5Z" transform="translate(-230.14 -334.11)"/></svg>