<svg xmlns="http://www.w3.org/2000/svg" xmlns:xlink="http://www.w3.org/1999/xlink" viewBox="0 0 968.33 968.33"><defs><style>.cls-1{fill:#333;}.cls-2{fill:url(#Dégradé_sans_nom_7);}.cls-3{fill:url(#Dégradé_sans_nom_7-2);}.cls-4{fill:#fff;}</style><linearGradient id="Dégradé_sans_nom_7" x1="718.51" y1="360.12" x2="182.51" y2="714.12" gradientUnits="userSpaceOnUse"><stop offset="0" stop-color="#2e65d3"/><stop offset="1" stop-color="#42e8a7"/></linearGradient><linearGradient id="Dégradé_sans_nom_7-2" x1="827.87" y1="525.71" x2="291.87" y2="879.71" xlink:href="#Dégradé_sans_nom_7"/></defs><title>[noir] Blue - vert</title><g id="Calque_5" data-name="Calque 5"><circle class="cls-1" cx="484.17" cy="484.17" r="484.17"/></g><g id="DI"><path class="cls-2" d="M759.65,443.7v2.39q0,134.83-74.41,208.9Q603,736.9,487.27,736.9q-116.06,0-198-81.92-74.42-74.07-74.41-208.9V443.7h-.68V413H760.34V443.7Zm-31.4,0H245.94v2.39q0,121.51,65.54,186.71,72.7,72.7,175.79,72.71,102.74,0,175.79-72.71,65.19-65.2,65.2-186.71Z"/><path class="cls-3" d="M216,734.82H760v30.72H216Z"/></g><g id="V"><polygon class="cls-4" points="466.89 401.9 494.39 166.61 467.06 173.15 440.36 401.9 466.89 401.9"/><polygon class="cls-4" points="432.15 455.25 415.39 585.55 320.96 455.25 286.38 455.25 434.95 660.42 461.38 455.25 432.15 455.25"/></g><g id="B"><path class="cls-4" d="M289.44,401.9l-15.82-24.33,45.68-30.12q45.93-30.26,99.83-19.19,29.91,6.15,52.53,23l3.64-31.21a162.21,162.21,0,0,0-50.51-19.4Q383.06,290,352,302.42q13.8-46.58-6.16-76.88-19.8-30-55.18-37.22T225.22,201L155.84,246.7,258,401.9Zm-49.73-179q22-14.49,46.31-10t38.81,26.46q14.49,22,8.6,45.49-5.06,20.51-22.26,34.29l-53,34.94-65.85-99.92Z"/></g></svg>