<svg id="Calque_1" data-name="Calque 1" xmlns="http://www.w3.org/2000/svg" xmlns:xlink="http://www.w3.org/1999/xlink" viewBox="0 0 100 100"><defs><style>.cls-1{fill:none;}.cls-2{fill:#d1d6da;}.cls-3{fill:#fefefe;}.cls-4{clip-path:url(#clip-path);}</style><clipPath id="clip-path" transform="translate(0 0.03)"><rect class="cls-1" x="57.63" y="75.51" width="23.72" height="20.04"/></clipPath></defs><title>default</title><rect class="cls-2" width="100" height="100"/><path class="cls-3" d="M30.72,56.59c0.51,0.56,1,1.08,1.55,1.59a25.28,25.28,0,0,0,35.35,0,22.07,22.07,0,0,0,1.55-1.59c0.49-.56,1-1.11,1.43-1.71,9.22-12.1,7.45-29.84-4-39.62S38.49,7.37,29.27,19.47a29.5,29.5,0,0,0,0,35.41c0.45,0.6.93,1.16,1.43,1.71h0Z" transform="translate(0 0.03)"/><path class="cls-3" d="M96.26,99a2.87,2.87,0,0,0,.07-1.17c-2-16.06-11.2-30.11-24.72-37.65a29.37,29.37,0,0,1-43.27,0l0,0C14.77,67.72,5.56,81.77,3.59,97.84A2.87,2.87,0,0,0,3.66,99h92.6Z" transform="translate(0 0.03)"/><g class="cls-4"><path class="cls-2" d="M71.08,92.47a0.4,0.4,0,0,0,0-.44L67.9,88.38A1.59,1.59,0,0,1,68,86.22L68,86.16l3.22-2.86a0.38,0.38,0,0,0,.07-0.42s-1.64-3.05-2.3-4-2.6-3.38-5.28-3.38a6.42,6.42,0,0,0-6.11,6.32A7.93,7.93,0,0,0,59,86.6c1.46,2.34,7.19,7.56,9.66,8.87,0.05,0,.17.05,0.34-0.17Z" transform="translate(0 0.03)"/><path class="cls-2" d="M81.33,81.82c-0.17-3.44-2.84-6.32-6.11-6.32-2.14,0-3.76,1.69-4.75,2.82a0.33,0.33,0,0,0,0,.44h0l2,3.38a1.83,1.83,0,0,1-.34,2.21l-3.22,2.86a0.14,0.14,0,0,0,0,.19v0L72,91.1a1.85,1.85,0,0,1,.08,2.23l-1.34,1.81c-0.11.13-.07,0.14,0,0.12,2.64-1.59,7.85-6.4,9.24-8.65a7.9,7.9,0,0,0,1.33-4.79h0Z" transform="translate(0 0.03)"/></g></svg>