<?xml version="1.0"?>
<svg xmlns="http://www.w3.org/2000/svg" id="Bold" enable-background="new 0 0 24 24" height="512px" viewBox="0 0 24 24" width="512px" class=""><g><path d="m23.994 24v-.001h.006v-8.802c0-4.306-.927-7.623-5.961-7.623-2.42 0-4.044 1.328-4.707 2.587h-.07v-2.185h-4.773v16.023h4.97v-7.934c0-2.089.396-4.109 2.983-4.109 2.549 0 2.587 2.384 2.587 4.243v7.801z" data-original="#000000" class="active-path" data-old_color="#000000" fill="#FFFFFF"/><path d="m.396 7.977h4.976v16.023h-4.976z" data-original="#000000" class="active-path" data-old_color="#000000" fill="#FFFFFF"/><path d="m2.882 0c-1.591 0-2.882 1.291-2.882 2.882s1.291 2.909 2.882 2.909 2.882-1.318 2.882-2.909c-.001-1.591-1.292-2.882-2.882-2.882z" data-original="#000000" class="active-path" data-old_color="#000000" fill="#FFFFFF"/><style id="stylish-3" class="stylish active-path" type="text/css" style="">/* i really want this to be global */
body&gt;[id*="ookie"],
body&gt;[class*="ookie"],
body [class*="ookie"][class*="olicy"],
body [class*="ookie"][class*="nfo"],
body [class*="ookie"][class*="oti"],
body [class*="ookie"][class*="anner"],
body [class*="ookie"][class*="ompliance"],
body [class*="ookie"][class*="eu"],
body [id*="ookie"][id*="olicy"],
body [id*="ookie"][id*="nfo"],
body [id*="ookie"][id*="oti"],
body [id*="ookie"][id*="anner"],
body [id*="ookie"][id*="ompliance"],
body [id*="ookie"][id*="eu"],
body [aria-label="cookieconsent"],
body [data-notification-id="cookiewarning"],
.cookie-content-container,
.espcookie,
.cc_banner-wrapper,
.sumo-form-wrapper,
.u12-data-protection-notice,
.optanon-alert-box-wrapper,
.cookieBar,
.cc-banner,
#crxMouseRateUs,
#catapult-cookie-bar,
#trust_sticky_footer,
#iubenda-cs-banner,
#policy-info,
#qcCmpUi,
#consentAccepted,
#js-gdpr-consent-banner,
#popupgdpr{display:none!important}</style></g> </svg>
