<svg id="Calque_1" data-name="Calque 1" xmlns="http://www.w3.org/2000/svg" viewBox="0 0 162.41 192.97"><defs><style>.cls-1{fill:#fff;}</style></defs><title>Plan de travail 1</title><path class="cls-1" d="M31.5,0c0,15.13,0,30.25,0,45.38a18.08,18.08,0,0,0,1.81,7.42,14.41,14.41,0,0,0,4.31,5.59,14.75,14.75,0,0,0,6.28,3.1,15,15,0,0,0,3.61.56c.6,0,1.08.42,1.73.34s1.41-.55,2.18-.34a5,5,0,0,0,2.33-.36,15.69,15.69,0,0,0,2-.64,15.48,15.48,0,0,0,6.93-4.83,16,16,0,0,0,2.48-4.36,25.58,25.58,0,0,1,1.16-3.53c-.17-1.07.34-2,.34-3.11q0-22.61,0-45.22h4.94q0,22.75,0,45.5a4.15,4.15,0,0,1-.1,2c-.35.65.05,1.38-.24,1.9s0,1.32-.58,1.77c-.31,2.51-1.66,4.59-3,6.62a18.82,18.82,0,0,1-6.47,5.86,20.53,20.53,0,0,1-4.61,1.91c-.84.24-1.72.35-2.53.61-1,.33-2.08-.06-3,.31s-1.89.13-2.83.24-1.83-.38-2.8-.33a14.69,14.69,0,0,1-2.84-.52A16.41,16.41,0,0,1,40,65.09,11.9,11.9,0,0,1,37.59,64,20.53,20.53,0,0,1,33,60.61a21.38,21.38,0,0,1-2.69-3.06A11.4,11.4,0,0,1,28.39,54c-.12-.54-.68-1-.6-1.6-.76-.86-.66-2-.85-3a21.07,21.07,0,0,1-.41-4c0-15.12,0-30.23,0-45.35Z"/><path class="cls-1" d="M130,0a39.1,39.1,0,0,1-.11,4.58c-1.49,0-3,0-4.46,0q-7.25,0-14.5,0c-.48,0-.82,0-.7.64a5.11,5.11,0,0,1,0,.92q0,29.16,0,58.33c0,.5.23,1.18-.13,1.45s-1,.09-1.48.1c-.77,0-1.54,0-2.31,0-.48,0-.83,0-.71-.64a5,5,0,0,0,0-.92q0-29.24,0-58.48c0-1.4,0-1.4-1.46-1.4H87c-.26,0-.52,0-.77,0s-.41-.17-.4-.47c0-1.39,0-2.78,0-4.17Z"/><path class="cls-1" d="M161.79,0q0,10.26,0,20.52c0,.77,0,.78-.7.78H141.19c-.69,0-.7,0-.7-.78q0-10.26,0-20.52Z"/><path class="cls-1" d="M143,193c-.11-.6-.58-.27-.86-.29s-.44-.37-.8-.34a8.57,8.57,0,0,1-3.74-1,14.74,14.74,0,0,1-4.6-2.67,15.13,15.13,0,0,1-2.18-1.84c-.18-.24-.25-.41,0-.64.66-.65,1.32-1.3,2-2,.29-.3.49-.24.75,0a24.48,24.48,0,0,0,2.25,2,19.39,19.39,0,0,0,5.2,2.74c.93.36,2,.11,2.84.59a50.06,50.06,0,0,0,5.86-.05,12.58,12.58,0,0,0,5.4-1.82,7.37,7.37,0,0,0,1.91-1.71,7.94,7.94,0,0,0,1.54-2.15,13.07,13.07,0,0,0,.89-3.65,25.65,25.65,0,0,0-.32-3.88c0-.18-.16-.25-.21-.38a8.52,8.52,0,0,0-6.56-5.23,5,5,0,0,1-1.7-.32,3,3,0,0,0-1.76-.23c-.51,0-.86-.47-1.42-.35a3.5,3.5,0,0,1-1.27-.23c-.87-.15-1.76-.21-2.64-.34a17.9,17.9,0,0,1-7.45-2.86,10.11,10.11,0,0,1-2.59-2.62,11.35,11.35,0,0,1-1.53-3.36,10.26,10.26,0,0,1-.35-2,13.4,13.4,0,0,1,0-3.23,14.53,14.53,0,0,1,1.83-5.4A11.56,11.56,0,0,1,137,146a20.65,20.65,0,0,1,5.29-2.13,25.23,25.23,0,0,1,6.65-.3c.68.11,1.36.19,2,.32a9,9,0,0,1,2.08.54c.59.26,1.29.33,1.89.66s1.18.63,1.78.93a11.76,11.76,0,0,1,3.33,2.4c.27.29.3.49,0,.75s-.58.58-.88.87-.63.79-1,.87-.66-.54-1-.78a41,41,0,0,0-4.88-2.74c-.54-.25-1.19,0-1.66-.45-.92.2-1.73-.41-2.65-.33s-1.85,0-2.77,0a20.77,20.77,0,0,0-2.75.42,10.85,10.85,0,0,0-3.24,1.47A9.33,9.33,0,0,0,136.8,151a8,8,0,0,0-1.56,5.21,13.36,13.36,0,0,0,.28,3.43,8.12,8.12,0,0,0,2.55,3.77,19.84,19.84,0,0,0,3,1.66c1,.53,2.21.6,3.25,1.09a1.62,1.62,0,0,0,.61,0,4.11,4.11,0,0,1,1.74.28c.51.23,1.21-.19,1.71.34a7.83,7.83,0,0,1,2.49.31,14.56,14.56,0,0,1,7.28,2.5,12.56,12.56,0,0,1,3.87,4.68c.13.28-.24.77.36.84v9.26c-.19,0-.24.1-.31.24a12.51,12.51,0,0,1-2.23,3.7,19.4,19.4,0,0,1-5.34,3.47c-1,0-1.8.82-2.82.61-.36-.07-.47.32-.8.34s-.75-.31-.86.29Z"/><path class="cls-1" d="M5,0V64.45c0,.41,0,.82,0,1.23s-.18.4-.47.4H0V1.4C0,1,0,.68,0,.32S.05,0,.32,0C1.86,0,3.41,0,5,0Z"/><path class="cls-1" d="M162.41,136.78H2.21c-.41,0-.83,0-1.23,0a.76.76,0,0,1-.66-.84.68.68,0,0,1,.66-.69c.41,0,.82,0,1.23,0h160.2Z"/><path class="cls-1" d="M118.26,168.1q0,11.73,0,23.46c0,.79,0,.79-.83.8a6.57,6.57,0,0,1-.77,0c-.8-.09-1.75.35-2.37-.19a6.31,6.31,0,0,1-1.21-1.79c-.86-1.63-2.24-2.92-2.87-4.67a15,15,0,0,1-2.48-3.45c-1.77-2.83-3.66-5.58-5.52-8.36-1.75-2.61-3.45-5.26-5.2-7.87-1.51-2.26-3.18-4.42-4.53-6.77-.9-1.57-2.12-2.9-3-4.47-.72-1.32-1.61-2.52-2.39-3.8-.12-.2-.19-.33-.41-.3s-.23.27-.23.47c0,.36,0,.72,0,1.08v38.58c0,.36,0,.72,0,1.08s0,.5-.4.47h-.31l-2.91-.06a14,14,0,0,1-.09-2.89q0-21.91,0-43.82c0-1.6,0-1.77,1.67-1.69a4.26,4.26,0,0,0,.92,0c1.05-.19,1.6.46,2,1.23,1.14,2,2.54,3.89,3.81,5.83,2.34,3.55,4.65,7.13,7,10.67,2.15,3.23,4.36,6.42,6.52,9.65,2.58,3.87,5.11,7.76,7.69,11.63.62.93,1.29,1.81,1.84,2.79a.9.9,0,0,0,.18.18c0-.09.12-.17.12-.26,0-.41,0-.82,0-1.23V145.46c0-.41,0-.82,0-1.23,0-.26.12-.36.36-.35h.15l3.07,0a12,12,0,0,1,.11,3Q118.28,157.53,118.26,168.1Z"/><path class="cls-1" d="M151.22,53.11h9.72c.85,0,.85,0,.85.78q0,9.87,0,19.75c0,.76,0,.78-.7.78h-19.9c-.69,0-.7,0-.7-.78q0-9.87,0-19.75c0-.77,0-.78.85-.78Z"/><path class="cls-1" d="M151.14,47.86c-3,0-6,0-8.95,0-.55,0-1.26.25-1.61-.14s-.1-1-.1-1.48q0-7.48,0-15c0-1.23,0-2.47,0-3.7,0-.46,0-.73.63-.72q10,.05,20.06,0c.65,0,.63.25.63.72,0,3.75,0,7.51,0,11.26q0,4,0,8c0,1,0,1-1.08,1Z"/><path class="cls-1" d="M151.14,100.66c-3,0-6.07,0-9.1,0-.5,0-1.14.23-1.46-.13s-.09-.87-.09-1.33q0-6.94,0-13.88c0-1.65,0-3.29,0-4.94,0-.46,0-.73.63-.72q10,.05,20.06,0c.65,0,.63.26.63.72,0,4.17,0,8.33,0,12.5q0,3.39,0,6.79c0,1,0,1-1.09,1Z"/><path class="cls-1" d="M140.8,116.25c0-2.93,0-5.86,0-8.79,0-.5-.23-1.14.14-1.46s.87-.09,1.33-.09h14.35c1.49,0,3,0,4.47,0,.47,0,.73,0,.72.63q-.05,9.87,0,19.75c0,.65-.26.63-.72.63H141.81c-1,0-1,0-1-1.09Q140.8,121,140.8,116.25Z"/><path class="cls-1" d="M40.77,168.28q0-11.65,0-23.31c0-.76,0-.77.7-.77H69.41c.49,0,.79,0,.7.65a12.65,12.65,0,0,1-.13,2.42c-.77,0-1.53,0-2.3,0H45.29c-.87,0-.82-.11-.82.81q0,8.8,0,17.6c0,.72,0,.73.75.73H66.05c.27,0,.35.14.34.37,0,.05,0,.1,0,.15l0,2.45a8.1,8.1,0,0,1-2.42.1c-5.92,0-11.83,0-17.75,0h-.93c-.5,0-.7.3-.77.73a3,3,0,0,0,0,.46q0,8.88,0,17.75c0,.91-.07.82.82.82H68.6c.36,0,.72,0,1.08,0s.43.13.43.45c0,.72,0,1.44,0,2.16,0,.44-.18.5-.54.49-.93,0-1.85,0-2.78,0H42.09c-.31,0-.62,0-.93,0s-.41-.17-.4-.47c0-.87,0-1.75,0-2.62Z"/><path class="cls-1" d="M.63,168.27q0-11.65,0-23.3c0-.77,0-.78.7-.78.87,0,1.73,0,2.6.05A9.8,9.8,0,0,1,4,146.83q0,20.44,0,40.89c0,.31,0,.62,0,.93s0,.69.55.63a9.35,9.35,0,0,1,1.08,0H29.57c.21,0,.4,0,.4.31,0,.87,0,1.75,0,2.62a5.67,5.67,0,0,1-2.41.14q-12.65,0-25.3,0c-.31,0-.62,0-.93,0-.49,0-.77,0-.71-.64.07-.82,0-1.64,0-2.47Z"/><path class="cls-1" d="M117.33,124.15c0,1.29,0,2.57,0,3.86,0,1-.7,1.6-1.34,2.22-.09.08-.28.07-.43.07-.67,0-1.34,0-2,0a1.91,1.91,0,0,1-1.3-.59.4.4,0,0,1-.14-.53c.13-.22.37-.09.56-.12s.34.19.48.32a2.06,2.06,0,0,0,2.15.2,2.39,2.39,0,0,0,1.39-2,8.16,8.16,0,0,0,0-.93c0-.43-.18-.54-.57-.25a2.78,2.78,0,0,1-1.81.49,2.47,2.47,0,0,1-2.55-2.43c0-.92,0-1.85,0-2.78a2.76,2.76,0,0,1,3.47-2.33c.51.14,1.08.83,1.72.13.11-.12.36,0,.36.32C117.33,121.27,117.33,122.71,117.33,124.15Zm-2.63-4a1.6,1.6,0,0,0-2,1.67c0,.1,0,.23,0,.3-.79,1.19-.08,2.24.33,3.3a1.58,1.58,0,0,0,1.69.89,2.28,2.28,0,0,0,1.7-1.23,5.7,5.7,0,0,0,0-3.73C116,120.27,115.83,120.11,114.71,120.11Z"/><path class="cls-1" d="M45.71,101.59c0-1.34,0-2.67,0-4,0-.29.17-.34.39-.32s.24.13.24.31c0,2.05.06,4.11,0,6.16a10.75,10.75,0,0,0,.4,2.18c.1.66.8,1.18,1.4,1.51A3.07,3.07,0,0,0,52,106a2.17,2.17,0,0,0,.19-1.15c0-2.36,0-4.73,0-7.09,0-.27,0-.5.38-.49s.57,0,.56.47c0,2.52,0,5,0,7.55a3.06,3.06,0,0,1-1.29,2.37,4.07,4.07,0,0,1-4.31.36,2.91,2.91,0,0,1-1.8-2.72C45.74,104.06,45.71,102.82,45.71,101.59Z"/><path class="cls-1" d="M74.11,121.14c0-1.64,0-3.29,0-4.93,0-.34.13-.44.45-.42s.49,0,.49.39c0,1.18,0,2.36,0,3.55a1.28,1.28,0,0,0,.15.4l.22-.22A2.69,2.69,0,0,1,79.77,121a1.72,1.72,0,0,1,.21.69c0,1.59,0,3.19,0,4.78,0,.44-.17.5-.54.5s-.4-.17-.4-.47c0-1.54,0-3.08,0-4.62a1.45,1.45,0,0,0-.56-1.17,1.31,1.31,0,0,0-1.17-.55c-.63.08-1.28-.12-1.8.54A1.94,1.94,0,0,0,75,122c0,1.54,0,3.08,0,4.62a.25.25,0,0,1-.26.29.46.46,0,0,1-.28-.07,1,1,0,0,1-.41-.91C74.12,124.32,74.11,122.73,74.11,121.14Z"/><path class="cls-1" d="M126.85,108.38c-1.91.27-2.86-1.6-3-2.92a15.14,15.14,0,0,0,0-1.54c-.13-.57.26-.95.37-1.41a2.69,2.69,0,0,1,3.35-1.71c1.7.56,2.25,1.43,2.18,3.37,0,.41-.14.52-.53.51-1.29,0-2.57,0-3.86,0-.49,0-.57.17-.58.61a2.71,2.71,0,0,0,.64,1.75c.41.55,1.06.52,1.57.68s1.1-.21,1.6-.51c.13-.08.2-.25.33-.32.29-.16.45.08.64.24s0,.32-.1.44A3.19,3.19,0,0,1,126.85,108.38Zm-.17-4.32h1.38c.71,0,.7,0,.7-.77a1.31,1.31,0,0,0-.31-1,2,2,0,0,0-1.86-.75,2.07,2.07,0,0,0-1.85,1.56c-.15.69,0,.91.7.92Z"/><path class="cls-1" d="M127.15,123.2h-1.39c-1,0-1.24.21-1,1.23.15.63.54,1.4,1.09,1.47s1.09.83,1.8.17c.26-.25.84-.16,1.14-.57s.44-.18.63.05.37.19.11.44a4.5,4.5,0,0,1-3.88.75c-1.12-.41-1.43-1.41-1.8-2.33a8.19,8.19,0,0,1,.3-3.56,2.92,2.92,0,0,1,3.38-1.52,2.88,2.88,0,0,1,2.17,3.53c0,.27-.15.33-.38.33Zm-.47-.62h1.38c.71,0,.7,0,.7-.77a1.3,1.3,0,0,0-.31-1,2,2,0,0,0-1.86-.75,2.07,2.07,0,0,0-1.85,1.56c-.15.69,0,.91.7.92Z"/><path class="cls-1" d="M111.16,105.29c0,.92,0,1.85,0,2.77a.27.27,0,0,1-.24.31c-.16,0-.36,0-.37-.17,0-.6-.34-.63-.64-.25a1.28,1.28,0,0,1-1.22.42,4.71,4.71,0,0,1-2.19-.28,2.92,2.92,0,0,1-1.18-1.45c-.29-.6.55-2.08,1.25-2.25a4.08,4.08,0,0,1,1.72-.35,8.86,8.86,0,0,0,1.54,0c.7,0,.91-.23.7-.9a3.08,3.08,0,0,0-.83-1.36c-.32-.3-.66-.19-1-.2a2.8,2.8,0,0,0-2.24.53.31.31,0,0,1-.51-.06c-.05-.09,0-.28.06-.41.31-.67,1.06-.71,1.61-.93a3,3,0,0,1,2.44.3,1.77,1.77,0,0,1,1.13,1.82A19,19,0,0,0,111.16,105.29Zm-2.33-.62c-1.26,0-1.71.15-2.3.77a1.1,1.1,0,0,0-.09,1.47,2.21,2.21,0,0,0,2.4.8,2.38,2.38,0,0,0,1.69-1.86.87.87,0,0,0-.94-1.18Z"/><path class="cls-1" d="M78.28,104.67c-.72,0-1.44,0-2.16,0-.47,0-.49.21-.47.55a2.41,2.41,0,0,0,2.12,2.54,4.3,4.3,0,0,0,1.74-.62c.16-.11.25-.38.49-.29a1.88,1.88,0,0,1,.47.34c.24.19,0,.25-.11.32a2.2,2.2,0,0,1-1.95.87,5.78,5.78,0,0,1-2.05-.25,2.13,2.13,0,0,1-1.21-1.37,10.91,10.91,0,0,1-.47-2.13,5.46,5.46,0,0,1,.38-1.87,3.06,3.06,0,0,1,2.42-2.08,2.47,2.47,0,0,1,1.8.45,2.51,2.51,0,0,1,1.29,1.75,2.75,2.75,0,0,0,.29,1.12c.25.42,0,.68-.59.69Zm-.56-.62c.61,0,1.23,0,1.84,0,.34,0,.5-.15.41-.45-.5-1.62-1.53-2.64-3.25-1.72a2.82,2.82,0,0,0-1.07,1.84c0,.29.17.32.39.32Z"/><path class="cls-1" d="M97,123.26c0,.36,0,.72,0,1.07a3.07,3.07,0,0,1-2.58,2.58,3,3,0,0,1-3.1-1.8,1.78,1.78,0,0,1-.18-.85q0-1.07,0-2.15a2.64,2.64,0,0,1,1.31-2.49c.76-.36,1.69-.94,2.6-.15.77-.15,1.11.48,1.44.92a3.51,3.51,0,0,1,.5,1.47A8,8,0,0,1,97,123.26ZM92,123c0,.41,0,.82,0,1.23a1.56,1.56,0,0,0,.46,1.2,1.8,1.8,0,0,0,1.62.59A1.77,1.77,0,0,0,96,124.05c0-.77,0-1.54,0-2.31a1.28,1.28,0,0,0-.36-.94,1.89,1.89,0,0,0-1.72-.72A1.8,1.8,0,0,0,92,122C92,122.34,92,122.65,92,123Z"/><path class="cls-1" d="M61.4,123.2H60c-1.06,0-1.25.19-1,1.21.15.63.52,1.41,1.07,1.49s1.09.84,1.8.18c.27-.25.84-.15,1.15-.57s.52-.09.74.13-.08.45-.21.53a4.31,4.31,0,0,1-3.24.7,2.25,2.25,0,0,1-1.66-1.28,5.5,5.5,0,0,1-.24-4.55,2,2,0,0,1,1-1.28,3.71,3.71,0,0,1,2.07-.56,2.86,2.86,0,0,1,2.42,2.72c0,.31,0,.62,0,.93s-.11.35-.36.35Zm-.34-.62c.56,0,1.13,0,1.69,0,.89.08.2-.41.26-.64.17-.67-.32-1-.65-1.43s-1-.42-1.52-.41A2,2,0,0,0,59,121.65c-.15.69,0,.92.7.93Z"/><path class="cls-1" d="M124.44,86.19q0,1.62,0,3.24c0,.2,0,.44-.28.42s-.55.14-.63-.22,0-.4-.4-.22a4.62,4.62,0,0,1-2,.47,2.38,2.38,0,0,1-2.56-2.43c-.06-1.54,0-3.08,0-4.63,0-.37.21-.38.49-.39s.45.09.45.43c0,1.49.05,3,0,4.47a1.49,1.49,0,0,0,.77,1.52,1.43,1.43,0,0,0,1.6.14c1.27-.68,1.66-.91,1.67-2.23s0-2.78,0-4.16c0-.2,0-.42.24-.47s.35.16.5.28.18.45.18.7C124.44,84.14,124.44,85.16,124.44,86.19Z"/><path class="cls-1" d="M109.62,123.24c.2.55-.16,1.13-.32,1.74a2.8,2.8,0,0,1-3.85,1.67c-1-.53-1.75-1.11-1.7-2.34,0-.5-.54-.9-.3-1.4a3.7,3.7,0,0,0,.31-1.41,2.76,2.76,0,0,1,3.35-2.16c.53.21,1.19.13,1.59.77A5.18,5.18,0,0,1,109.62,123.24Zm-.93,0c0-.46,0-.77,0-1.08a2,2,0,0,0-1.67-2,2,2,0,0,0-2.37,1.5,4.53,4.53,0,0,0-.28,1.88c0,1.33.79,2.79,2.45,2.49a.38.38,0,0,1,.15,0c.6.14,1-.25,1.27-.64A3,3,0,0,0,108.69,123.22Z"/><path class="cls-1" d="M88.62,124.16q0,1.08,0,2.16c0,.3.07.6-.44.6s-.5-.17-.5-.54c0-1.49,0-3,0-4.47a1.46,1.46,0,0,0-.47-1.2,3.5,3.5,0,0,0-1.49-.89.79.79,0,0,0-.43.06,3.92,3.92,0,0,0-1.5,1.2c-.31.34-.11.78-.12,1.18q0,2.08,0,4.16c0,.43-.17.5-.54.5s-.41-.17-.4-.47c0-2.16,0-4.32,0-6.48,0-.2,0-.45.24-.46s.53-.12.68.17-.05.68.33.24a1.38,1.38,0,0,1,1.23-.42c.31,0,.62,0,.93,0,.54,0,1.08-.12,1.53.42a2.85,2.85,0,0,1,.94,2.09C88.59,122.72,88.62,123.44,88.62,124.16Z"/><path class="cls-1" d="M91.81,108.38a3.28,3.28,0,0,1-2.55-.76c-.13-.13-.52-.25-.12-.55.21-.15.48-.42.62-.14.31.61.95.53,1.42.72a2.32,2.32,0,0,0,2.82-1.1,1,1,0,0,0-.94-1.54,13.8,13.8,0,0,1-2.5-.34,1.39,1.39,0,0,1-1.22-1c-.17-.65-.37-1.38.26-2a2.75,2.75,0,0,1,3.18-.78c.45.18,1,.2,1.54.38a.31.31,0,0,1,.16.38.26.26,0,0,1-.32.23c-.29-.05-.58.07-.88-.11a4,4,0,0,0-2.37-.15c-.5,0-.74.47-.75,1,0,1.1.22,1.36,1.35,1.38a8,8,0,0,1,2.68.62.78.78,0,0,1,.61.9,1.84,1.84,0,0,0,0,.31c0,.6.13,1.35-.34,1.68a2.92,2.92,0,0,1-2.12.82A4,4,0,0,0,91.81,108.38Z"/><path class="cls-1" d="M99.79,82.44H101c.19,0,.4-.05.56.14s.43.34.3.64-.37.19-.54.14a7.22,7.22,0,0,1-.92-.39,2.2,2.2,0,0,0-2.74.76,1.28,1.28,0,0,0,1,1.78,11.49,11.49,0,0,1,2.34.3,1.63,1.63,0,0,1,1.51,1.89c-.06.87-.91,2.06-1.76,2.12a6,6,0,0,1-3.91-.58c-.29-.19-.19-.44-.19-.67a.27.27,0,0,1,.42-.25,5.72,5.72,0,0,0,1.71.73,2.16,2.16,0,0,0,2.54-.61,1,1,0,0,0,.24-1.12c-.13-.4-.49-.9-.94-.84-.84.11-1.55-.33-2.34-.35A1.24,1.24,0,0,1,97,84.85c0-.26,0-.51,0-.77a1.57,1.57,0,0,1,1.6-1.63C99,82.43,99.38,82.44,99.79,82.44Z"/><path class="cls-1" d="M56.2,104.65c0-.62,0-1.23,0-1.85s-.19-1.25.06-1.66,1-.11,1.58-.17a3,3,0,0,0,.55-.16,2.54,2.54,0,0,1,3.4,2.47,46.78,46.78,0,0,0,0,4.77c0,.28-.15.35-.38.32s-.25-.11-.25-.31q0-2.15,0-4.31a3.81,3.81,0,0,0-.26-1.12c-.39-1.24-1.31-1-2.2-1.05a1.6,1.6,0,0,0-1.51,1.25,4,4,0,0,0-.38,1.71c.1,1.12,0,2.25,0,3.38,0,.2,0,.42-.26.45s-.37-.23-.36-.5C56.21,106.8,56.2,105.73,56.2,104.65Z"/><path class="cls-1" d="M53.12,121.81c0,1.59,0,3.18,0,4.77,0,.28-.16.35-.38.32s-.25-.12-.24-.31c0-.62,0-1.23,0-1.85q0-3.62,0-7.23c0-.78,0-.78-.84-.79s-1.44,0-2.15,0c-.35,0-.42-.15-.41-.46s0-.48.4-.47q3.31,0,6.62,0c.35,0,.41.16.41.46s0,.48-.4.47c-.62,0-1.23,0-1.85,0-1.15,0-1.15,0-1.16,1.09Q53.11,119.8,53.12,121.81Z"/><path class="cls-1" d="M88.62,86.07c0-1.13,0-2.26,0-3.39a.24.24,0,0,1,.31-.23c.09,0,.25.07.25.11,0,.6.26.43.58.2a6.16,6.16,0,0,1,1.46-.56,2.59,2.59,0,0,1,2.93,1.95c.05,1.8,0,3.6,0,5.4,0,.2-.09.29-.25.3s-.38-.06-.38-.33c0-1.39,0-2.78,0-4.17a2.2,2.2,0,0,0,0-.77c-.24-.59-.5-1.35-1.11-1.48-.8-.17-1.84-.3-2.42.35a2.86,2.86,0,0,0-.79,2c0,1.23,0,2.47,0,3.7a2.93,2.93,0,0,1,0,.6c0,.06-.16.11-.25.11s-.24,0-.26-.09a2.53,2.53,0,0,1-.06-.59C88.62,88.13,88.62,87.1,88.62,86.07Z"/><path class="cls-1" d="M69.6,126.9a3,3,0,0,1-3.23-2.36,4.43,4.43,0,0,1,.93-4.61c.44-.53,1.06-.52,1.57-.69a1.75,1.75,0,0,1,1.72.22c.34.28.87.37,1.24.69a.36.36,0,0,1,.1.42c0,.15-.23.14-.38.17-.35.08-.54-.21-.79-.32a2.32,2.32,0,0,0-1.26-.31c-.53.07-1.08-.14-1.54.4a2.81,2.81,0,0,0-1,2.07,7,7,0,0,1,0,1.23,2.36,2.36,0,0,0,3.69,2,1,1,0,0,0,.22-.21c.17-.19.36-.39.63-.19s.12.71-.14.93A2.14,2.14,0,0,1,69.6,126.9Z"/><path class="cls-1" d="M68,101a1,1,0,0,1,.56.62c.5,1.59,1,3.16,1.52,4.75.07.24,0,.52.38.49s.2-.27.26-.45c.54-1.67,1.09-3.33,1.79-5,.21-.49.41-.46.74-.45.09,0,.27,0,.15.26-.36.83-.52,1.75-.87,2.56a19.28,19.28,0,0,0-1.22,3.5c0,.13-.27.22-.28.34,0,.42-.27.72-.63.71s-.49-.46-.65-.84c-.73-1.71-1.22-3.5-1.93-5.2a3.2,3.2,0,0,1-.19-1.15C67.63,101,67.82,100.94,68,101Z"/><path class="cls-1" d="M100.35,120.75c0,1.39,0,2.78,0,4.16,0,.85.1,1,1.05,1,.43,0,.49.18.5.55,0,.53-.35.41-.63.39-1.15-.06-1.84-.9-1.85-2.32,0-2.72,0-5.45,0-8.17,0-.1,0-.21,0-.31,0-.31.19-.31.4-.31s.53-.08.53.33C100.35,117.66,100.35,119.21,100.35,120.75Z"/><path class="cls-1" d="M127.52,85.8c0-.62,0-1.24,0-1.85s0-1-.76-.9c-.13,0-.21-.2-.18-.36s.11-.28.31-.25c.43.07.67,0,.63-.55a14.59,14.59,0,0,1,0-1.7c0-.16.15-.24.33-.22s.28.1.28.27,0,.51,0,.77c0,1.34,0,1.34,1.31,1.43a1.43,1.43,0,0,1,.44.06c.06,0,.1.17.1.26s-.07.25-.11.25c-.46,0-.92,0-1.37,0-.25,0-.36.09-.36.35,0,1.44,0,2.88,0,4.32,0,.41.27.61.35.95.12.52.6.22.91.23s.69.05.62.57c0,.23-.07.35-.34.38a2.32,2.32,0,0,1-1.62-.57,1.33,1.33,0,0,1-.53-1.33C127.56,87.24,127.52,86.52,127.52,85.8Z"/><path class="cls-1" d="M101.28,104.36c0-.67,0-1.34,0-2s0-.9-.72-.78c-.14,0-.23-.14-.22-.32s.1-.31.27-.28c.57.1.72-.13.67-.68a13.1,13.1,0,0,1,0-1.54c0-.17.1-.26.29-.26s.31.08.32.24c0,.41,0,.82,0,1.23,0,.76.21,1,1,1,.2,0,.41,0,.62,0s.26.1.27.28a.29.29,0,0,1-.22.33.57.57,0,0,1-.15,0c-.46,0-1.06-.14-1.33.09s-.13,1-.14,1.46c0,1,0,2,0,2.93a2.33,2.33,0,0,0,.33,1.11c.23.55.7.24,1,.26s.51.14.51.53-.33.41-.62.41a2.46,2.46,0,0,1-1.55-.74c-.4-.33-.31-.72-.31-1.11C101.27,105.8,101.28,105.08,101.28,104.36Z"/><path class="cls-1" d="M83.37,104.65v-1.84c0-.56-.2-1.25.05-1.66s1-.1,1.57-.18a2,2,0,0,0,.55-.15,2,2,0,0,1,2.29.44.39.39,0,0,1,.11.52c-.09.17-.27.08-.41.11-.42.07-.65-.44-1.1-.32s-1-.16-1.41.34a2.93,2.93,0,0,0-1,2c0,1.18,0,2.35,0,3.53,0,.2,0,.41,0,.61a.25.25,0,0,1-.26.29c-.25,0-.36-.09-.36-.35C83.38,106.91,83.37,105.78,83.37,104.65Z"/><path class="cls-1" d="M113.94,85.84c0-.67,0-1.34,0-2s0-.89-.72-.79c-.24,0-.28-.42-.19-.44,1.22-.32.86-1.29.9-2.09a1.88,1.88,0,0,1,0-.31.28.28,0,0,1,.32-.24c.19,0,.29.1.29.26,0,.57,0,1.13,0,1.7,0,.39.1.57.51.52a5.68,5.68,0,0,1,.77,0c.18,0,.26.1.27.28a.29.29,0,0,1-.22.33.59.59,0,0,1-.15,0c-.35,0-.8-.1-1,.08s-.11.76-.12,1.16c0,1.08,0,2.16,0,3.24a2.89,2.89,0,0,0,.32,1.11c.17.55.6.23.9.27s.33.28.35.53-.14.45-.45.41a2.83,2.83,0,0,1-1.4-.74c-.4-.32-.31-.72-.31-1.11C113.93,87.28,113.94,86.56,113.94,85.84Z"/><path class="cls-1" d="M106.84,89.54c-1.31,0-1.84-.51-1.85-1.84,0-1.13,0-2.26,0-3.4,0-.59.31-1.41-.82-1.31,0,0-.08-.16-.1-.26a.23.23,0,0,1,.25-.29c.54.08.75-.09.68-.67s0-.93,0-1.39.12-.45.44-.43.5,0,.49.38,0,1,0,1.54.2.58.63.57.86-.1.83.09c-.07.44-.55.16-.86.2-.68.08-.89.25-.9.92,0,1.23,0,2.47,0,3.7,0,.53.55.87.34,1.41.35.15.69.31,1,.45.15.06.45-.1.43.2s-.26.09-.4.11Z"/><path class="cls-1" d="M118,104.49c0-1.08,0-2.16,0-3.23a.26.26,0,0,1,.26-.29.29.29,0,0,1,.35.2c.06.2-.08.58.37.23.29-.22.73-.25,1-.46.91-.63,1.66-.21,2.42.3a.39.39,0,0,1,.17.52c-.12.22-.36.11-.55.14s-.26-.14-.39-.19c-1.75-.58-2.84.47-3,2.21a35.37,35.37,0,0,0,0,3.69c0,.2,0,.42-.25.45s-.37-.23-.37-.49C118,106.55,118,105.52,118,104.49Z"/><path class="cls-1" d="M120.42,123.19c0-1.08,0-2.15,0-3.23,0-.29,0-.48.39-.48s.55,0,.55.48c0,2,0,4,0,6,0,.19.09.41-.09.57s-.31.44-.61.37-.22-.29-.22-.49Q120.42,124.8,120.42,123.19Z"/><path class="cls-1" d="M84.61,84c0-1.64,0-3.29,0-4.93,0-.19.08-.29.24-.31s.39,0,.39.32q0,3.54,0,7.08c0,1,0,2.05,0,3.08,0,.19-.08.29-.24.31s-.39,0-.39-.32C84.61,87.48,84.61,85.73,84.61,84Z"/><path class="cls-1" d="M114.86,104.51c0,1.08,0,2.15,0,3.23,0,.28-.16.35-.38.32s-.24-.12-.24-.31q0-3.23,0-6.46c0-.28.16-.35.38-.32s.25.12.24.31C114.86,102.36,114.86,103.43,114.86,104.51Z"/><path class="cls-1" d="M97.27,104.52c0-1.08,0-2.15,0-3.23,0-.28.16-.35.38-.32s.24.12.24.31q0,3.23,0,6.46c0,.28-.16.35-.38.32s-.24-.12-.24-.31C97.27,106.68,97.27,105.6,97.27,104.52Z"/><path class="cls-1" d="M65.47,104.51c0,1.08,0,2.15,0,3.23,0,.28-.15.35-.38.33s-.25-.11-.25-.3q0-3.23,0-6.46c0-.28.15-.35.38-.33a.26.26,0,0,1,.25.3C65.46,102.35,65.47,103.43,65.47,104.51Z"/><path class="cls-1" d="M109.92,85.83c0-1,0-2.05,0-3.08,0-.19.08-.29.24-.31s.38,0,.38.32q0,3.23,0,6.46c0,.19-.08.29-.24.31s-.38,0-.38-.32C109.93,88.09,109.92,87,109.92,85.83Z"/><path class="cls-1" d="M114.63,98.5c-.32,0-.65-.33-.69-.79,0-.2,0-.39.24-.45s1,.27,1,.62S114.87,98.36,114.63,98.5Z"/><path class="cls-1" d="M65.08,98.19c-.21,0-.53.11-.54-.31s.25-.46.44-.56a.93.93,0,0,1,.7,0c.22.09.11.36.1.55C65.73,98.38,65.32,98.11,65.08,98.19Z"/><path class="cls-1" d="M110.24,79.66h-.3c-.38,0-.41-.28-.27-.49s.33-.49.72-.45.5,0,.46.4.11.54-.3.54Z"/><path class="cls-1" d="M121.35,116.33c0,.35-.17.37-.46.4-.46,0-.47-.21-.47-.55s.18-.37.47-.4C121.35,115.73,121.38,116,121.35,116.33Z"/><path class="cls-1" d="M98.18,97.69c.09.5-.19.51-.53.51s-.37-.18-.4-.47c0-.46.21-.47.55-.47S98.26,97.41,98.18,97.69Z"/></svg>