<?xml version="1.0" standalone="no"?>
<!DOCTYPE svg PUBLIC "-//W3C//DTD SVG 20010904//EN"
 "http://www.w3.org/TR/2001/REC-SVG-20010904/DTD/svg10.dtd">
<svg version="1.0" xmlns="http://www.w3.org/2000/svg"
 width="261.000000pt" height="261.000000pt" viewBox="0 0 261.000000 261.000000"
 preserveAspectRatio="xMidYMid meet">
<metadata>
Created by potrace 1.11, written by Peter Selinger 2001-2013
</metadata>
<g transform="translate(0.000000,261.000000) scale(0.100000,-0.100000)"
fill="#000000" stroke="none">
<path d="M1377 2333 c-35 -6 -43 -23 -52 -113 -4 -41 -8 -82 -10 -90 -1 -8 -8
-64 -15 -125 -15 -136 -15 -133 -21 -139 -3 -3 -22 -1 -43 5 -67 18 -80 21
-148 24 -37 2 -82 0 -100 -5 -17 -6 -33 -8 -35 -6 -2 1 1 30 5 63 19 135 -37
236 -166 300 -63 31 -164 35 -225 10 -42 -18 -297 -183 -297 -193 0 -3 61 -99
136 -212 75 -114 153 -233 173 -264 l36 -57 58 0 57 -1 -26 41 c-14 23 -22 45
-17 49 4 4 42 30 83 57 106 71 146 90 230 110 26 6 133 5 169 -1 18 -4 49 -13
68 -21 34 -14 35 -16 28 -57 -3 -24 -8 -68 -11 -98 -3 -30 -7 -61 -9 -67 -3
-9 10 -13 45 -13 41 0 50 3 51 18 0 9 2 26 4 37 3 11 7 47 10 80 3 33 7 71 9
85 6 37 15 109 21 165 3 28 8 70 11 95 3 25 7 65 10 90 2 25 6 59 9 75 16 124
17 165 4 164 -8 -1 -26 -4 -42 -6z m-607 -170 c98 -61 136 -163 96 -256 -21
-49 -53 -79 -153 -145 l-91 -60 -113 169 c-62 93 -110 171 -108 173 13 11 158
105 179 116 59 32 142 33 190 3z"/>
<path d="M469 1480 c-2 -29 2 -226 5 -260 29 -332 194 -587 481 -741 42 -23
109 -52 148 -65 40 -13 70 -24 67 -24 -3 -1 -160 -1 -350 -2 -389 -1 -360 6
-352 -78 l4 -38 932 0 933 0 -1 57 -1 56 -340 2 c-187 1 -347 2 -355 3 -8 0
24 14 72 29 230 75 432 251 531 462 32 68 72 204 82 279 4 30 8 118 9 195 l1
140 -932 0 c-829 0 -933 -1 -934 -15z m1748 -193 c-18 -264 -91 -438 -244
-580 -157 -146 -326 -216 -538 -222 -170 -6 -288 20 -424 92 -263 139 -400
372 -425 724 -3 37 -3 69 -1 71 3 2 372 5 821 5 l817 1 -6 -91z"/>
<path d="M1216 1320 c-5 -25 -10 -59 -21 -155 -4 -27 -8 -61 -10 -75 -2 -14
-6 -45 -10 -70 -3 -25 -8 -62 -11 -83 l-6 -37 -160 220 -160 220 -59 0 c-45 0
-58 -3 -53 -12 4 -7 71 -101 148 -208 78 -107 148 -205 156 -216 8 -12 55 -77
105 -144 104 -143 97 -146 120 70 1 14 5 48 9 75 4 28 8 66 11 85 11 88 26
207 30 230 15 99 15 120 3 121 -88 5 -87 5 -92 -21z"/>
</g>
</svg>
