<svg xmlns="http://www.w3.org/2000/svg" version="1.1" id="Capa_1" x="0" y="0" viewBox="0 0 26 26" xml:space="preserve" width="512" height="512"><path d="M18 17.759v3.366C18 22.159 17.159 23 16.125 23H4.875C3.841 23 3 22.159 3 21.125V9.875C3 8.841 3.841 8 4.875 8h3.429l3.001-3h-6.43C2.182 5 0 7.182 0 9.875v11.25C0 23.818 2.182 26 4.875 26h11.25C18.818 26 21 23.818 21 21.125v-6.367l-3 3.001z" data-original="#030104" class="active-path" data-old_color="#030104" fill="#160743"/><path d="M22.581 0H12.322c-1.886.002-1.755.51-.76 1.504l3.22 3.22-5.52 5.519c-1.145 1.144-1.144 2.998 0 4.141l2.41 2.411c1.144 1.141 2.996 1.142 4.14-.001l5.52-5.52 3.16 3.16c1.101 1.1 1.507 1.129 1.507-.757L26 3.419c-.001-3.437.024-3.42-3.419-3.419z" data-original="#030104" class="active-path" data-old_color="#030104" fill="#160743"/><style id="stylish-3" type="text/css">body&gt;[id*=&quot;ookie&quot;],body&gt;[class*=&quot;ookie&quot;],body [class*=&quot;ookie&quot;][class*=&quot;olicy&quot;],body [class*=&quot;ookie&quot;][class*=&quot;nfo&quot;],body [class*=&quot;ookie&quot;][class*=&quot;oti&quot;],body [class*=&quot;ookie&quot;][class*=&quot;anner&quot;],body [class*=&quot;ookie&quot;][class*=&quot;ompliance&quot;],body [class*=&quot;ookie&quot;][class*=&quot;eu&quot;],body [id*=&quot;ookie&quot;][id*=&quot;olicy&quot;],body [id*=&quot;ookie&quot;][id*=&quot;nfo&quot;],body [id*=&quot;ookie&quot;][id*=&quot;oti&quot;],body [id*=&quot;ookie&quot;][id*=&quot;anner&quot;],body [id*=&quot;ookie&quot;][id*=&quot;ompliance&quot;],body [id*=&quot;ookie&quot;][id*=&quot;eu&quot;],body [aria-label=&quot;cookieconsent&quot;],body [data-notification-id=&quot;cookiewarning&quot;],.cookie-content-container,.espcookie,.cc_banner-wrapper,.sumo-form-wrapper,.u12-data-protection-notice,.optanon-alert-box-wrapper,.cookieBar,.cc-banner,#crxMouseRateUs,#catapult-cookie-bar,#trust_sticky_footer,#iubenda-cs-banner,#policy-info,#qcCmpUi,#consentAccepted,#js-gdpr-consent-banner,#popupgdpr{display:none!important}</style></svg>