<?xml version="1.0" standalone="no"?>
<!DOCTYPE svg PUBLIC "-//W3C//DTD SVG 20010904//EN"
 "http://www.w3.org/TR/2001/REC-SVG-20010904/DTD/svg10.dtd">
<svg version="1.0" xmlns="http://www.w3.org/2000/svg"
 width="16.000000pt" height="16.000000pt" viewBox="0 0 16.000000 16.000000"
 preserveAspectRatio="xMidYMid meet">
<metadata>
Created by potrace 1.11, written by Peter Selinger 2001-2013
</metadata>
<g transform="translate(0.000000,16.000000) scale(0.001837,-0.001837)"
fill="#000000" stroke="none">
<path d="M10 6087 l0 -1423 528 2 c560 1 642 4 820 35 279 48 464 141 647 324
294 294 427 717 383 1215 -43 476 -292 874 -678 1083 -72 38 -238 103 -290
112 -18 3 -36 8 -40 10 -11 7 -190 34 -270 40 -41 4 -88 9 -105 11 -16 3 -247
6 -512 9 l-483 4 0 -1422z m890 1129 c25 -3 79 -8 120 -11 41 -3 82 -8 90 -10
8 -2 40 -7 70 -10 30 -4 58 -9 61 -11 3 -2 21 -6 40 -9 58 -10 204 -63 265
-96 227 -124 365 -280 479 -542 24 -55 62 -211 72 -293 9 -84 10 -287 0 -366
-35 -294 -184 -565 -391 -713 -152 -108 -323 -172 -506 -190 -142 -14 -172
-17 -240 -20 -62 -3 -543 -7 -645 -6 l-30 1 1 1143 c1 628 2 1143 3 1144 3 4
571 -6 611 -11z"/>
<path d="M2910 4361 l0 -3146 140 0 c134 0 140 1 141 20 0 20 0 6210 -1 6251
0 20 -5 21 -140 21 l-140 0 0 -3146z"/>
<path d="M4598 7505 c-2 -1 -30 -5 -63 -8 -70 -7 -83 -9 -150 -32 -197 -67
-337 -201 -417 -400 -26 -66 -33 -246 -12 -335 37 -159 119 -282 284 -422 58
-49 292 -228 350 -268 99 -67 295 -237 365 -315 64 -72 122 -166 140 -229 41
-138 -6 -311 -113 -414 -155 -151 -398 -195 -592 -109 -109 49 -230 162 -322
302 -33 50 -61 92 -63 94 -3 2 -58 -27 -124 -64 l-120 -68 27 -49 c30 -53 119
-176 167 -229 171 -191 377 -285 640 -294 273 -9 506 96 677 308 154 190 189
448 92 680 -81 193 -261 377 -608 623 -83 59 -152 111 -154 116 -2 4 -8 8 -13
8 -16 0 -163 118 -216 172 -205 215 -175 498 65 611 51 24 82 31 152 35 196
10 311 -50 499 -265 l53 -62 112 81 c61 45 113 82 115 84 8 7 -83 116 -163
194 -169 166 -325 239 -548 253 -32 3 -59 3 -60 2z"/>
<path d="M7235 7493 c-229 -29 -454 -106 -632 -217 -51 -31 -98 -62 -105 -69
-7 -7 -29 -24 -48 -38 -57 -42 -172 -159 -231 -234 -189 -238 -280 -510 -279
-833 0 -139 4 -188 25 -303 71 -384 333 -741 689 -938 77 -43 191 -92 246
-107 137 -37 170 -45 200 -50 19 -3 42 -7 50 -9 100 -26 504 -26 630 0 14 3
41 8 60 11 19 3 60 12 90 20 30 9 69 19 85 23 107 28 280 113 405 198 91 62
280 238 280 260 0 5 -28 30 -62 54 -35 23 -65 45 -68 49 -3 3 -24 18 -47 33
l-41 29 -59 -59 c-193 -195 -470 -338 -713 -368 -25 -3 -63 -7 -85 -10 -55 -7
-194 -7 -284 0 -547 41 -1013 447 -1086 945 -4 25 -9 56 -11 70 -6 38 -5 241
1 275 3 17 8 46 11 65 3 19 8 46 11 60 8 45 55 174 86 235 107 214 291 396
512 507 74 38 190 85 225 93 8 2 47 11 85 20 96 23 158 29 310 28 173 0 292
-18 420 -63 33 -12 69 -24 80 -27 40 -13 192 -96 255 -141 36 -25 106 -87 156
-137 87 -89 91 -92 111 -76 23 18 46 34 140 102 l64 47 -41 48 c-245 289 -566
453 -995 510 -92 12 -329 10 -440 -3z"/>
<path d="M9 4040 c-4 -98 0 -2812 4 -2817 8 -7 267 -7 274 1 3 3 6 309 6 680
0 491 3 676 11 678 10 4 1413 2 1426 -1 3 0 4 -307 3 -681 l-2 -680 30 -1 c38
-1 191 -1 228 0 l28 1 -1 1418 -1 1417 -140 0 -140 0 -2 -588 c-1 -324 -4
-592 -8 -595 -4 -4 -326 -7 -716 -7 -622 0 -710 2 -713 15 -3 8 -5 272 -5 585
0 314 0 575 0 580 -1 7 -53 10 -141 10 -118 0 -140 -2 -141 -15z"/>
<path d="M3802 4045 c-4 -5 -7 -643 -7 -1417 l0 -1408 40 -1 c42 -1 197 0 228
1 16 0 17 40 17 693 l0 694 543 -1 c298 -1 553 1 567 5 l25 5 0 136 1 136
-551 0 c-302 1 -558 1 -567 1 -17 1 -18 29 -18 444 l0 442 565 0 c373 0 565 3
566 10 4 34 4 257 -1 263 -8 12 -1401 9 -1408 -3z"/>
<path d="M5669 4050 c-1 -3 -2 -641 -3 -1417 l-1 -1413 25 -1 c14 0 78 -1 142
-2 l118 -2 0 1420 0 1420 -140 0 c-77 0 -141 -2 -141 -5z"/>
<path d="M6560 2637 l0 -1422 1070 0 1070 0 0 1422 0 1421 -1070 1 -1070 0 0
-1422z m1214 1029 c143 -70 200 -230 133 -368 -31 -64 -66 -97 -141 -135 -73
-37 -178 -37 -258 1 -138 65 -200 211 -148 348 31 81 78 127 165 163 79 32
172 28 249 -9z m46 -1144 c89 -31 141 -59 202 -107 200 -157 270 -406 180
-641 -45 -118 -157 -240 -277 -302 -142 -72 -332 -87 -482 -38 -250 81 -413
295 -413 541 -1 33 2 71 5 85 2 14 8 39 11 55 12 57 76 173 126 229 87 97 221
173 350 195 80 14 234 6 298 -17z"/>
<path d="M7580 2089 c-84 -34 -98 -142 -27 -207 57 -53 182 -21 204 53 34 108
-69 197 -177 154z"/>
</g>
</svg>
